<svg xmlns="http://www.w3.org/2000/svg" width="33.67" height="24.635" viewBox="0 0 33.67 24.635"><g transform="translate(-1627.513 -656.722)"><path d="M22.673,329.182c.869-.311,1.676-.607,2.487-.887a1.067,1.067,0,0,1,1.031.156,7.269,7.269,0,0,1,3.118,5.332c.161,1.994.073,4.008.095,6.013,0,.173,0,.345,0,.539H13.709c0-.08-.011-.147-.011-.214,0-1.866-.045-3.734.015-5.6a7.622,7.622,0,0,1,3.16-6.046,1.107,1.107,0,0,1,1.092-.175c.8.281,1.6.57,2.464.881v.274c0,1.761,0,3.522,0,5.283a1.118,1.118,0,0,0,2.212.253,2.126,2.126,0,0,0,.028-.452c0-1.807,0-3.614,0-5.359" transform="translate(1622.794 341)" fill="#ffb349"/><path d="M27.16,321.328a5.609,5.609,0,1,1-5.583-5.606,5.616,5.616,0,0,1,5.583,5.606" transform="translate(1622.794 341)" fill="#ffb349"/><path d="M31.648,340.323c0-1.761-.013-3.5,0-5.235a10.3,10.3,0,0,0-1.179-5.013c-.032-.06-.053-.125-.106-.253a5.045,5.045,0,0,1,.511.12,5.433,5.433,0,0,0,3.772,0,1.258,1.258,0,0,1,1.227.154,5.491,5.491,0,0,1,2.494,4.573c.034,1.5.012,3.008.006,4.512a1.1,1.1,0,0,1-1.094,1.169c-1.834.012-3.668,0-5.5,0a.772.772,0,0,1-.133-.03" transform="translate(1622.794 341)" fill="#ffb349"/><path d="M11.453,340.352c-1.93,0-3.81.01-5.69-.006a1.055,1.055,0,0,1-1.029-1.01c0-1.794-.062-3.6.078-5.381a5.137,5.137,0,0,1,2.517-3.925,1.11,1.11,0,0,1,1.039-.111,5.57,5.57,0,0,0,3.94,0,3.269,3.269,0,0,1,.426-.087c-.148.313-.272.569-.39.828a9.961,9.961,0,0,0-.892,4.17c0,1.7,0,3.4,0,5.107Z" transform="translate(1622.794 341)" fill="#ffb349"/><path d="M10.349,329.158a4.479,4.479,0,1,1,4.47-4.488,4.5,4.5,0,0,1-4.47,4.488" transform="translate(1622.794 341)" fill="#ffb349"/><path d="M37.257,324.671a4.488,4.488,0,1,1-4.486-4.471,4.495,4.495,0,0,1,4.486,4.471" transform="translate(1622.794 341)" fill="#ffb349"/></g></svg>