<svg xmlns="http://www.w3.org/2000/svg" width="35.1" height="35.104" viewBox="0 0 35.1 35.104"><g transform="translate(-1633.451 -460.876)"><path d="M23.1,105.876c.643.089,1.288.158,1.927.269a17.427,17.427,0,0,1,7.7,3.453,1.016,1.016,0,0,1,.108,1.607c-.413.426-.838.842-1.258,1.262a1.086,1.086,0,0,1-1.687.126,12.818,12.818,0,0,0-4.579-2.177A13.162,13.162,0,0,0,12.683,113.8a12.841,12.841,0,0,0-4,7.545A1.083,1.083,0,0,1,7.421,122.4c-.606,0-1.211,0-1.817,0a1.037,1.037,0,0,1-1.064-1.272,17.394,17.394,0,0,1,8.279-12.6,16.978,16.978,0,0,1,7.923-2.593,2.354,2.354,0,0,0,.3-.058Z" transform="translate(1628.93 355)" fill="#ffb349"/><path d="M39.622,124.457c-.091.666-.16,1.335-.278,2a17.589,17.589,0,0,1-3.449,7.7,1.016,1.016,0,0,1-1.608.1c-.441-.431-.875-.87-1.309-1.308a1.044,1.044,0,0,1-.128-1.554,13.553,13.553,0,0,0,2.369-5.268,12.991,12.991,0,0,0-2.2-10.348c-.1-.15-.22-.293-.31-.451a.965.965,0,0,1,.13-1.2c.5-.52,1-1.034,1.527-1.526a1.006,1.006,0,0,1,1.549.2,16.948,16.948,0,0,1,3.076,6.142c.264,1.035.382,2.106.567,3.161.018.1.04.2.06.3Z" transform="translate(1628.93 355)" fill="#ffb349"/><path d="M30.3,123.441a8.228,8.228,0,1,1-8.2-8.24,8.292,8.292,0,0,1,8.2,8.24m-9.267,4.036c0,.019.008.052.01.086a1.048,1.048,0,0,0,1.014,1.143c.6.009.986-.415,1.052-1.113a.4.4,0,0,1,.192-.256,9.04,9.04,0,0,0,1.1-.611,2.217,2.217,0,0,0-.246-3.714,4.3,4.3,0,0,0-1.046-.407c-.616-.165-1.246-.278-1.865-.432-.117-.03-.212-.151-.317-.23.088-.111.153-.264.267-.324a1.787,1.787,0,0,1,1.856.009,1.037,1.037,0,0,0,1.472-.291,1.021,1.021,0,0,0-.386-1.447c-.316-.2-.666-.336-1.023-.512,0-.013-.007-.058-.009-.1a1.045,1.045,0,0,0-1.032-1.126,1.059,1.059,0,0,0-1.035,1.1.453.453,0,0,1-.209.277,8.33,8.33,0,0,0-1.267.783,2.193,2.193,0,0,0,.417,3.53,4.265,4.265,0,0,0,1.043.413c.616.165,1.247.275,1.865.43.125.032.224.165.335.251-.093.108-.165.256-.283.316a1.8,1.8,0,0,1-1.856-.026,1.032,1.032,0,0,0-1.448.285,1.019,1.019,0,0,0,.365,1.452c.316.2.667.338,1.036.521" transform="translate(1628.93 355)" fill="#ffb349"/><path d="M6.588,124.457c.33,0,.661,0,.994,0a.992.992,0,0,1,1.057.873,13.438,13.438,0,0,0,1.031,3.5,13.742,13.742,0,0,0,9.927,7.947c.2.044.407.057.607.1a1.015,1.015,0,0,1,.834,1.028c.008.673.011,1.347,0,2.021a1.021,1.021,0,0,1-1.207,1.035,17.7,17.7,0,0,1-12.959-8.592,16.952,16.952,0,0,1-2.337-6.668,1.038,1.038,0,0,1,1.058-1.248c.332,0,.663,0,.995,0" transform="translate(1628.93 355)" fill="#ffb349"/><path d="M23.1,138.9c0-.331-.006-.662,0-.993a1,1,0,0,1,.87-1.031,13.6,13.6,0,0,0,5.969-2.583,1.058,1.058,0,0,1,1.606.134c.429.427.86.852,1.283,1.285a1,1,0,0,1-.109,1.621,17.727,17.727,0,0,1-8.346,3.626,1.045,1.045,0,0,1-1.274-1.1c0-.32,0-.639,0-.959" transform="translate(1628.93 355)" fill="#ffb349"/></g></svg>