<svg xmlns="http://www.w3.org/2000/svg" width="43.206" height="41.291" viewBox="0 0 43.206 41.291"><g transform="translate(-1464.794 -849.354)"><path d="M33.725,3.11a4.069,4.069,0,1,0,4.07,4.069,4.073,4.073,0,0,0-4.07-4.069" transform="translate(1464.794 849.354)" fill="#ffb349"/><path d="M33.8,0a9.4,9.4,0,0,0-8.988,12.177L22,13.524a11.979,11.979,0,1,0-2.028,15.439L21.7,30.4a7.19,7.19,0,1,0,3.161-2.836,7.267,7.267,0,0,0-1.525.948l-1.688-1.4a11.951,11.951,0,0,0,1.6-11.083l2.774-1.333A9.4,9.4,0,1,0,33.8,0M25.566,29.085a5.516,5.516,0,0,1,6.15,8.966,4.543,4.543,0,0,0-1.635-2.988c-.026.025-.053.049-.08.072s-.056.05-.084.073c-.058.047-.118.093-.18.137l-1.252,2.643-.271-1.513.372-.611c-.046.011-.092.02-.138.029a3.657,3.657,0,0,1-.364.047c-.068.006-.135.008-.2.01a3.382,3.382,0,0,1-.764-.083l.392.617-.224,1.544-1.448-2.771c-.065-.051-.129-.1-.191-.16l-.026.022A5.51,5.51,0,0,0,24,38.029a5.516,5.516,0,0,1,1.566-8.944M15.41,23.592c-.078.1-1.624,1.106-1.624,1.106l.76,1.037-2.408,1.891.005.01-.008-.006-.008.006,0-.01L9.723,25.735l.761-1.037s-1.547-1.009-1.625-1.106c-.138-.173.691-.968.691-.968l2.585,5,2.584-5s.829.8.691.968m2.868,3.14a9.972,9.972,0,0,0-1.272-3.358,17.058,17.058,0,0,0,.45-5.319c-.033-.229-.067-.448-.1-.661a4.65,4.65,0,0,0-.06-.524,7.472,7.472,0,0,0-.571-1.845,4.377,4.377,0,0,0-1.7-2.186,4.526,4.526,0,0,0-2.808-.956,4.959,4.959,0,0,0-1.548.247,3.74,3.74,0,0,0-2.425,1.6,5.11,5.11,0,0,0-.573,1.111,4.917,4.917,0,0,0-.335,1.053c-.223.847-.385,1.794-.554,2.768a22.4,22.4,0,0,1-1.126,4.627.128.128,0,0,0,.02.13.13.13,0,0,0,.124.046,2.567,2.567,0,0,0,1.438-.647,3.3,3.3,0,0,1-1.4,1.341.134.134,0,0,0-.07.108.128.128,0,0,0,.056.115,5.178,5.178,0,0,0,.555.314,11.139,11.139,0,0,0-.693,2.05,9.185,9.185,0,1,1,12.593-.011M38.841,14.557c-.531-2.868-1.806-3.916-2.166-4.159l-.109.1c-.036.031-.074.062-.112.093-.078.062-.159.123-.242.182L34.5,14.278l-.34-2.023.5-.811c-.062.013-.123.025-.185.036a4.335,4.335,0,0,1-.488.058c-.089.006-.18.01-.272.01a4.337,4.337,0,0,1-1.018-.121l.513.829L32.9,14.313,31.006,10.6c-.087-.069-.171-.142-.253-.219l-.035.031A7.366,7.366,0,0,0,28.511,14.3a7.212,7.212,0,1,1,10.33.256" transform="translate(1464.794 849.354)" fill="#ffb349"/><path d="M27.813,29.627a3.05,3.05,0,1,0,3.081,3.017,3.052,3.052,0,0,0-3.081-3.017" transform="translate(1464.794 849.354)" fill="#ffb349"/></g></svg>