<svg xmlns="http://www.w3.org/2000/svg" width="36.859" height="30.788" viewBox="0 0 36.859 30.788"><g transform="translate(-1625.495 -550.88)"><path d="M39.56,220.971c-.111.426-.2.859-.337,1.275a14.288,14.288,0,0,1-2.966,4.795c-.438.506-.913.982-1.358,1.457-.058-.011-.086-.008-.1-.021a17.5,17.5,0,0,1-4.081-5.506,5.542,5.542,0,0,1-.377-4.054,4.723,4.723,0,0,1,9.141.593c.019.1.051.206.077.31v1.151m-3.666-1.991H33.782v2.113h2.112Z" transform="translate(1622.794 341)" fill="#ffb349"/><path d="M21.092,222.782c-.594-.656-1.2-1.281-1.76-1.95a12.96,12.96,0,0,1-2.688-4.666,4.736,4.736,0,1,1,9.14-.7,9.417,9.417,0,0,1-1.816,3.986c-.828,1.1-1.77,2.106-2.663,3.152a1.869,1.869,0,0,1-.213.174m-1.014-7.452h2.117v-2.115H20.078Z" transform="translate(1622.794 341)" fill="#ffb349"/><path d="M7.426,228.54a16.933,16.933,0,0,1-4.383-6.295,4.824,4.824,0,0,1,.681-4.8,4.712,4.712,0,0,1,8.354,3.7,8.777,8.777,0,0,1-.6,1.948,17.866,17.866,0,0,1-4.056,5.446M6.376,221.1H8.492v-2.12H6.376Z" transform="translate(1622.794 341)" fill="#ffb349"/><path d="M15.655,240.667l.587-6.376h9.7a43.066,43.066,0,0,1,.6,6.376Z" transform="translate(1622.794 341)" fill="#ffb349"/><path d="M4.292,240.665c.126-.832.215-1.652.38-2.456a15.761,15.761,0,0,1,1.258-3.7.36.36,0,0,1,.373-.253c2.53.007,5.061,0,7.592.006a1.744,1.744,0,0,1,.21.026c-.124,1.075-.27,2.13-.363,3.189s-.132,2.1-.2,3.185Z" transform="translate(1622.794 341)" fill="#ffb349"/><path d="M28.208,234.263h.324c2.435,0,4.871.006,7.305-.008a.526.526,0,0,1,.558.366,16.7,16.7,0,0,1,1.517,5.808c.006.071,0,.143,0,.239H28.768c-.185-2.112-.371-4.231-.56-6.4" transform="translate(1622.794 341)" fill="#ffb349"/><path d="M25.451,232.085H16.794c.03-.152.05-.287.083-.418a16.458,16.458,0,0,1,2.1-5.085,6.01,6.01,0,0,1,1.056-1.211,1.586,1.586,0,0,1,2.22,0,6.112,6.112,0,0,1,1.458,1.9,18.772,18.772,0,0,1,1.719,4.554,1.669,1.669,0,0,1,.019.261" transform="translate(1622.794 341)" fill="#ffb349"/><path d="M34.922,232.083H27.714a21.5,21.5,0,0,0-2.587-6.685,17.026,17.026,0,0,1,9.8,6.685" transform="translate(1622.794 341)" fill="#ffb349"/><path d="M17.137,225.4a20.824,20.824,0,0,0-2.518,6.438c-.04.17-.089.27-.3.27-2.266-.008-4.533-.006-6.8-.008a.7.7,0,0,1-.15-.047,16.994,16.994,0,0,1,9.765-6.653" transform="translate(1622.794 341)" fill="#ffb349"/></g></svg>