<svg xmlns="http://www.w3.org/2000/svg" width="38.192" height="38.055" viewBox="0 0 38.192 38.055"><g transform="translate(-1625.301 -742.99)"><path d="M2.507,410.814c1.2-.4,2.4-.788,3.6-1.2.113-.039.2-.171.284-.277.706-.944,1.408-1.891,2.146-2.884l.725.975c.045.059.089.119.134.179a8.871,8.871,0,0,0,1.536,1.944,8.541,8.541,0,0,0,2.293.834l1.345.457c-.144.213-.265.4-.391.575a9.272,9.272,0,0,1-.761,1.057,4.216,4.216,0,0,0-1.137,3.535,18.492,18.492,0,0,1,.011,1.919c-.185-.044-.324-.069-.457-.11-.972-.3-1.938-.62-2.915-.9a1.408,1.408,0,0,0-.743-.005c-1.024.295-2.038.625-3.057.941-.08.025-.164.041-.294.072-.009-.154-.022-.282-.025-.411-.017-1.068-.028-2.137-.054-3.2a.86.86,0,0,0-.125-.447c-.7-1-1.407-1.986-2.113-2.976Z" transform="translate(1622.794 341)" fill="#ffb349"/><path d="M20.4,433.321h2.193c0-.637.025-1.267-.008-1.893-.021-.386.092-.519.488-.59,3.886-.689,7.768-1.406,11.651-2.113a.924.924,0,0,1,.144,0v11.321H8.11V428.7c.756.134,1.495.261,2.234.4q4.853.885,9.707,1.767c.262.047.356.138.349.4-.016.67,0,1.34,0,2.053" transform="translate(1622.794 341)" fill="#ffb349"/><path d="M34.9,419.946v2.214c0,1.3-.01,2.61.008,3.915,0,.3-.091.4-.379.449q-5.642,1.013-11.281,2.048a7.171,7.171,0,0,0-.8.152A6.328,6.328,0,0,1,19.4,428.5c-3.678-.654-7.35-1.334-11.027-1.995-.216-.039-.289-.109-.289-.328.007-2,.005-4,.006-6a1.887,1.887,0,0,1,.031-.224H8.6c2.287,0,4.574-.006,6.861.006.331,0,.46-.075.447-.432-.027-.732-.02-1.467,0-2.2a.534.534,0,0,1,.225-.4,11.323,11.323,0,0,1,5.977-1.412,12.111,12.111,0,0,1,4.781,1.432.52.52,0,0,1,.18.39c.017.733.024,1.467,0,2.2-.011.333.1.421.422.419,2.312-.012,4.624-.007,6.936-.006H34.9m-13.391,0c.992,0,1.985-.006,2.977,0,.255,0,.359-.075.342-.339-.019-.3.019-.6-.016-.891a.474.474,0,0,0-.236-.337,7.843,7.843,0,0,0-5.311-.295c-1.109.341-1.1.326-1.107,1.478,0,.326.118.39.411.386.98-.015,1.96-.006,2.94-.006" transform="translate(1622.794 341)" fill="#ffb349"/><path d="M21.493,401.99c.739.994,1.435,1.946,2.152,2.882a1.119,1.119,0,0,0,.493.352c1.108.392,2.225.761,3.4,1.158l-.66.932a9.639,9.639,0,0,0-1.533,2.271,9.561,9.561,0,0,0-.094,2.737c0,.368,0,.736,0,1.17-.868-.269-1.679-.461-2.441-.773a3.254,3.254,0,0,0-2.606,0c-.765.31-1.578.505-2.424.769-.015-.168-.034-.3-.035-.425-.011-1.043-.007-2.087-.037-3.13a1.261,1.261,0,0,0-.212-.641c-.658-.961-1.339-1.9-2.045-2.9.884-.3,1.711-.635,2.567-.858a2.954,2.954,0,0,0,1.858-1.34c.477-.752,1.053-1.441,1.618-2.2" transform="translate(1622.794 341)" fill="#ffb349"/><path d="M38.384,417.943c-.811-.251-1.613-.437-2.363-.748a3.284,3.284,0,0,0-2.678,0c-.648.273-1.345.433-2.021.641-.114.036-.232.059-.417.106,0-1.108-.019-2.163.008-3.216a1.834,1.834,0,0,0-.4-1.232c-.571-.751-1.1-1.534-1.647-2.3-.07-.1-.131-.2-.221-.345.876-.3,1.707-.62,2.563-.851a2.944,2.944,0,0,0,1.831-1.319c.484-.761,1.067-1.459,1.632-2.219.735.988,1.431,1.937,2.146,2.872a1.116,1.116,0,0,0,.488.356c1.11.393,2.229.764,3.393,1.158-.084.133-.15.245-.224.351-.6.852-1.218,1.7-1.805,2.558a1.281,1.281,0,0,0-.206.645c-.036,1.056-.04,2.113-.058,3.169,0,.11-.012.219-.022.378" transform="translate(1622.794 341)" fill="#ffb349"/></g></svg>