<svg xmlns="http://www.w3.org/2000/svg" xmlns:xlink="http://www.w3.org/1999/xlink" width="48.088" height="50.188" viewBox="0 0 48.088 50.188"><defs><clipPath id="a"><rect width="48.088" height="50.188" fill="none"/></clipPath></defs><g transform="translate(0 0)" clip-path="url(#a)"><path d="M48.084,9.137a10.172,10.172,0,0,0-1.407-5.281A6.953,6.953,0,0,0,40.346,0C28.165.029,15.985.012,3.8.012c-.651,0-1.3-.017-1.954.009a1.6,1.6,0,0,0-.742.191A2.691,2.691,0,0,0,.479,3.928a1.838,1.838,0,0,0,1.636.826c3.539-.01,7.078-.005,10.617-.005q13.907,0,27.814-.005A3.332,3.332,0,0,1,43.1,5.89,5.087,5.087,0,0,1,44.428,9.42c.031,3.245.006,6.49.015,9.735a6.24,6.24,0,0,1-.475,2.437A3.612,3.612,0,0,1,40.532,24.1c-7.1.026-14.2.01-21.3.007a3.291,3.291,0,0,1-.468-.069V22.95c-1.116.065-2.236.1-3.367.14-1.2.047-2.4.228-3.6.256a7.459,7.459,0,0,1-.975-.05c0,.1,0,.208,0,.312a4.338,4.338,0,0,1-.064.5h-.744c-2.692,0-5.384.012-8.077-.009a1.59,1.59,0,0,0-1.328.6,2.706,2.706,0,0,0-.385,2.807A1.982,1.982,0,0,0,2.293,28.86c2.605-.024,5.211-.011,7.816,0,.228,0,.478-.083.711.133V31.98a3.081,3.081,0,0,0,.27-.277c.568-.82,1.141-1.637,1.694-2.47a.754.754,0,0,1,.706-.387c.8.018,1.608.036,2.409-.005a1.085,1.085,0,0,1,1.069.6c.536.838,1.128,1.635,1.8,2.595V28.852h.839q10.324,0,20.649-.006a9.291,9.291,0,0,0,1.61-.146,6.653,6.653,0,0,0,3.747-2.21,8.9,8.9,0,0,0,1.874-3.236,10.122,10.122,0,0,0,.593-3.191q-.012-5.464,0-10.926" transform="translate(0 0)" fill="#0096bf"/><path d="M41.228,19.173a1.241,1.241,0,0,0-.8-1.163,2.4,2.4,0,0,0-.759-.118q-6.611-.01-13.223,0c-1.954,0-3.908,0-5.862,0-.227,0-.478.082-.679-.109V13.227h.863q9.511,0,19.02.01a1.22,1.22,0,0,0,1.313-.791,2.747,2.747,0,0,0,.131-.944c0-.952-.483-1.468-1.357-1.469-3.452,0-6.9.024-10.357-.009-3.389-.032-6.776.045-10.168-.082A1.131,1.131,0,0,1,18.3,11.2a23.889,23.889,0,0,1-5.244,0A.975.975,0,0,1,12.3,9.95c-.285.017-.57.037-.854.061-1.425.118-2.865.016-4.3.028a1.519,1.519,0,0,0-.687.14,1.7,1.7,0,0,0-.719,1.793c.219.9.6,1.253,1.4,1.256,1.368,0,2.736,0,4.1,0,.21,0,.418.023.616.034a28.085,28.085,0,0,1-.043,4.625H11.2c-1.325,0-2.65.037-3.973-.012a1.577,1.577,0,0,0-1.43,2.1c.265.85.577,1.114,1.416,1.115,1.346,0,2.693,0,4.039,0,.667,0,.681.018.684.758,0,.143,0,.286,0,.429a7.3,7.3,0,0,0,.974.05c1.068-.024,2.13-.173,3.2-.235,1.262-.075,2.515-.091,3.767-.156-.006-.8-.041-.851.9-.85q9.38.009,18.759,0c.217,0,.434-.01.651,0a.814.814,0,0,0,.584-.254,1.787,1.787,0,0,0,.466-1.661" transform="translate(-1.106 -1.324)" fill="#7e7e80"/><path d="M43.424,49.8H41.1c-.431-2.025-.862-4.048-1.311-6.151a2.329,2.329,0,0,0-.263.384c-.491,1.19-.969,2.387-1.457,3.577-.227.551-.451,1.105-.71,1.638a1.325,1.325,0,0,1-2.355.13,5.626,5.626,0,0,1-.384-.809q-.975-2.357-1.943-4.719c-.016-.04-.056-.068-.107-.125-.372.287-.192.759-.315,1.122A9.769,9.769,0,0,0,32,46.061c-.082.407-.16.816-.25,1.221s-.2.806-.286,1.212-.166.811-.246,1.2a5.587,5.587,0,0,1-2.238.068,2.7,2.7,0,0,1,.029-.45c.4-1.731.817-3.459,1.224-5.189.258-1.1.5-2.2.763-3.3a1.53,1.53,0,0,1,.549-.915,1.18,1.18,0,0,1,1.869.507c.481.991.93,2,1.378,3.01.418.942.815,1.9,1.224,2.843a1.424,1.424,0,0,0,.171.22,4.634,4.634,0,0,0,.266-.45q1.2-2.707,2.394-5.418a1.557,1.557,0,0,1,.677-.813,1.2,1.2,0,0,1,1.735.661,7.531,7.531,0,0,1,.31,1.063q.568,2.462,1.12,4.929c.243,1.078.477,2.159.738,3.336" transform="translate(-5.62 -5.276)" fill="#f09c0a"/><path d="M19.692,49.972a7.422,7.422,0,0,1-3.241-.518,3.823,3.823,0,0,1-2.309-2.712,7.556,7.556,0,0,1-.075-3.582,3.824,3.824,0,0,1,2.477-2.979A8.327,8.327,0,0,1,21,39.746a11.873,11.873,0,0,1,1.579.343,3.952,3.952,0,0,1,2.73,3.073,6.886,6.886,0,0,1-.392,4.484A3.578,3.578,0,0,1,23,49.431a7.438,7.438,0,0,1-3.309.542m.052-2.441c.613-.068,1.241-.1,1.855-.214a1.692,1.692,0,0,0,1.448-1.553,6.136,6.136,0,0,0,.08-1.588,1.8,1.8,0,0,0-1.033-1.644,8.126,8.126,0,0,0-1.125-.29,7.25,7.25,0,0,0-3.4.16,1.487,1.487,0,0,0-1.046.856,4.021,4.021,0,0,0-.076,2.92,1.592,1.592,0,0,0,1.411,1.156c.623.06,1.244.13,1.885.2" transform="translate(-2.694 -5.273)" fill="#f09c0a"/><path d="M56.887,43.729,55.51,45.943H50.773c-.211.224-.128.47-.14.694-.012.207,0,.416,0,.6.238.234.488.145.717.146,1.757.008,3.515,0,5.272,0h.75c-.518.84-.962,1.574-1.424,2.3a.6.6,0,0,1-.32.191,1.121,1.121,0,0,1-.324.008q-3.287,0-6.574,0c-.149,0-.3-.014-.441-.021-.111-.54-.131-9.086-.023-9.888h9l-1.5,2.462H50.682v1.229a6.375,6.375,0,0,0,1.536.066c.521.015,1.041,0,1.562,0h3.107" transform="translate(-9.347 -5.321)" fill="#f09c0a"/><path d="M.075,43.714c.571,0,1.108,0,1.646,0,.191,0,.381.017.627.029v3.539a2.82,2.82,0,0,0,.473.09c.911.006,1.822-.014,2.733,0a2.289,2.289,0,0,0,2.19-2.345A2.41,2.41,0,0,0,6.33,42.611a2.121,2.121,0,0,0-.879-.175c-1.54-.017-3.08-.009-4.62-.01H.07L1.545,39.96a2.34,2.34,0,0,1,.293-.033c1.367,0,2.733-.008,4.1.006a3.973,3.973,0,0,1,2.931,1.426,4.917,4.917,0,0,1,1.2,2.861,5.592,5.592,0,0,1-.766,3.5,4.061,4.061,0,0,1-1.918,1.718,4.741,4.741,0,0,1-2.014.444c-1.561-.034-3.123-.01-4.686-.01H.075Z" transform="translate(-0.014 -5.315)" fill="#f09c0a"/><path d="M12.05,56.445l.533,1h-.477c-.145-.289-.282-.593-.447-.879-.11-.191-.135-.18-.607-.109-.017.307-.035.623-.055.974H10.59V54.991c.5,0,1.016-.034,1.524.007a.627.627,0,0,1,.431.347.731.731,0,0,1-.082.785,3.024,3.024,0,0,1-.414.315" transform="translate(-2.054 -7.319)" fill="#7e7e7d"/><path d="M38.349,56.6a6.662,6.662,0,0,0,.67.34.733.733,0,0,0,.89-.217.351.351,0,0,0-.146-.563,2.146,2.146,0,0,0-.384-.049,3.316,3.316,0,0,1-.506-.1c-.519-.167-.643-.389-.576-.987a.688.688,0,0,1,.735-.711,1.758,1.758,0,0,1,1.081.148c.273.167.278.172.083.661a1.021,1.021,0,0,0-1.032-.415.956.956,0,0,0-.193.025c-.181.06-.335.189-.276.4a.521.521,0,0,0,.3.3c.267.086.553.1.824.173a.8.8,0,0,1,.642.838.953.953,0,0,1-.806.94A1.733,1.733,0,0,1,38.2,57c.044-.117.094-.257.147-.4" transform="translate(-7.409 -7.229)" fill="#7e7e7d"/><path d="M15.585,56.458c0-.414,0-.826,0-1.24,0-.225.116-.277.326-.177v2.372c-.185.056-.338.115-.49-.125a10.061,10.061,0,0,0-.692-.919c-.152-.189-.325-.358-.559-.613v1.685h-.384c-.012-.8,0-1.6,0-2.389.214-.09.361-.12.5.066.268.364.547.717.829,1.068a4.082,4.082,0,0,0,.316.32l.159-.049" transform="translate(-2.673 -7.319)" fill="#7e7e7d"/><path d="M28.2,55.893v1.534l-.329.027v-2.4c.188-.139.336-.121.509.123a6.526,6.526,0,0,0,1.151,1.269V55.059c.251-.119.361-.062.364.16.006.441,0,.883,0,1.325v.885l-.343.027-1.226-1.59-.131.026" transform="translate(-5.405 -7.318)" fill="#7e7e7d"/><path d="M26.589,56.229a1.1,1.1,0,0,1-1.157,1.26c-.76.022-1.137-.5-1.133-1.361a1.035,1.035,0,0,1,1.153-1.175c.75.027,1.141.445,1.137,1.276m-1.179.858a.829.829,0,0,0,.806-.887.82.82,0,0,0-.772-.851.782.782,0,0,0-.76.85.8.8,0,0,0,.726.888" transform="translate(-4.713 -7.315)" fill="#7e7e7d"/><path d="M53.59,56.231A1.143,1.143,0,0,1,52.439,57.5,1.224,1.224,0,0,1,51.3,56.185c.061-.7.276-1.264,1.182-1.234.742.025,1.113.433,1.111,1.28m-1.838-.039c-.006.612.2.882.667.893a.874.874,0,0,0,.045-1.737c-.487-.011-.706.25-.713.844" transform="translate(-9.948 -7.315)" fill="#7e7e7d"/><path d="M3.184,56.631a4.266,4.266,0,0,0,.066-1.625l.337-.021v2.447a.331.331,0,0,1-.441-.126c-.271-.389-.579-.748-.864-1.125-.1-.126-.17-.269-.3-.472a3.62,3.62,0,0,0-.076,1.705.768.768,0,0,1-.177.047,1,1,0,0,1-.21-.042V55.045c.185-.081.329-.123.492.1.341.472.718.916,1.169,1.482" transform="translate(-0.295 -7.319)" fill="#7e7e7d"/><path d="M48.026,56.247c-.007-.847.364-1.258,1.095-1.3.881-.048,1.195.641,1.2,1.293A1.221,1.221,0,0,1,49.19,57.5a1.136,1.136,0,0,1-1.164-1.254m1.837-.051c0-.558-.248-.871-.691-.889a.92.92,0,0,0-.784.92.821.821,0,0,0,.815.859c.463-.013.666-.285.66-.889" transform="translate(-9.313 -7.315)" fill="#7e7e7d"/><path d="M9.405,55.373H8.08c-.09.614-.028.713.416.7a3.322,3.322,0,0,0,.447-.076c.089.173.1.326-.126.345s-.474,0-.767,0c-.023.227-.044.421-.066.632.509.229,1.017.022,1.518.152.006.091.01.176.019.3H7.659a6.967,6.967,0,0,1-.034-1.219c-.01-.39,0-.78,0-1.213a5.347,5.347,0,0,1,1.765.077c.022.008.008.129.016.3" transform="translate(-1.477 -7.316)" fill="#7e7e7d"/><path d="M59.171,55.3l-.145.272c-.77-.438-.9-.433-1.4.1a2.343,2.343,0,0,0,.433.256,2.938,2.938,0,0,0,.451.042c.593.1.735.271.7.847-.026.434-.243.652-.755.65a3.9,3.9,0,0,1-.941-.167c-.058-.016-.085-.171-.148-.308.412.034.763.071,1.114.089.186.01.349-.046.351-.3s-.162-.288-.347-.305q-.32-.031-.637-.091c-.4-.077-.495-.219-.457-.835a.558.558,0,0,1,.6-.586,1.289,1.289,0,0,1,1.187.334" transform="translate(-11.126 -7.316)" fill="#7e7e7d"/><path d="M46.817,57.434l-.364.021V56.382H45.259a1.642,1.642,0,0,0-.022,1.032l-.378.042a5.387,5.387,0,0,1-.053-1.253c-.012-.39,0-.782,0-1.2l.4-.041c-.011.168-.027.316-.029.464s.011.275.019.439a2.551,2.551,0,0,0,1.251.053,6.152,6.152,0,0,1,.056-.765c.015-.08.162-.13.314-.242Z" transform="translate(-8.688 -7.31)" fill="#7e7e7d"/><path d="M32.847,57.486c-.156-.673-.193-.707-.713-.7-.5,0-.514.016-.64.665h-.429c.305-.821.6-1.6.907-2.434h.372c.328.818.644,1.6.975,2.426l-.472.047" transform="translate(-6.025 -7.323)" fill="#7e7e7d"/><path d="M17.994,55h.327l1.008,2.435-.417.029c-.094-.219-.182-.424-.279-.651H17.7l-.282.629h-.375L17.994,55" transform="translate(-3.305 -7.321)" fill="#7e7e7d"/><path d="M43.7,55.317c-.059.108-.111.205-.131.244a5.517,5.517,0,0,0-.953-.2c-.455-.016-.684.27-.71.788a.832.832,0,0,0,.68.934,1.337,1.337,0,0,0,.954-.288c.015.117.073.257.035.3a1.222,1.222,0,0,1-1.313.349,1.062,1.062,0,0,1-.737-.871,1.4,1.4,0,0,1,.222-1.227,1.246,1.246,0,0,1,1.483-.3,2.346,2.346,0,0,1,.47.268" transform="translate(-8.043 -7.314)" fill="#7e7e7d"/><path d="M20.971,55.425c-.661-.1-.661-.1-.718-.441.588,0,1.166-.008,1.743.012.059,0,.113.176.207.335l-.786.058c-.108.658,0,1.329-.064,2.032l-.382.05Z" transform="translate(-3.928 -7.319)" fill="#7e7e7d"/><path d="M5.856,57.444H5.428V55.412l-.8-.1c.11-.151.171-.309.236-.311.538-.02,1.078-.017,1.617,0,.052,0,.1.159.182.3l-.8.118Z" transform="translate(-0.897 -7.319)" fill="#7e7e7d"/><path d="M34.873,57.067h1.257c.145.2.167.372-.056.384-.511.028-1.025.009-1.567.009V55.025l.367-.054Z" transform="translate(-6.692 -7.318)" fill="#7e7e7d"/><path d="M.49,57.346H.071V54.381l.419-.029Z" transform="translate(-0.014 -7.235)" fill="#7e7e7d"/><path d="M54.856,57.431V55.057c.174-.107.318-.109.332.127.022.347.01.7.01,1.044,0,.251,0,.5,0,.712.41.338.973-.067,1.311.289-.016.068-.031.135-.048.2Z" transform="translate(-10.639 -7.32)" fill="#7e7e7d"/><path d="M21.434,10V33.109c-.666-.953-1.255-1.743-1.788-2.578a1.091,1.091,0,0,0-1.068-.6c-.8.042-1.608.023-2.411.007a.754.754,0,0,0-.7.386c-.555.833-1.127,1.65-1.694,2.471a2.562,2.562,0,0,1-.265.271V23.8q0-1.091,0-2.18V15.809c.008-.505.008-1.044,0-1.523V10Z" transform="translate(-2.619 -1.331)" fill="#f29c0d"/><rect width="1.565" height="1.993" transform="translate(14.07 29.956)" fill="#f29c0d"/></g></svg>