<svg xmlns="http://www.w3.org/2000/svg" width="55.019" height="110.337" viewBox="0 0 55.019 110.337"><g transform="translate(-1425.929 -3053)"><path d="M665.945,206.658a27.509,27.509,0,1,1-27.1-27.62,27.515,27.515,0,0,1,27.1,27.62m-36.357-3.888c-.347-.168-.485-.5-.681-.779q-2.13-3.019-4.251-6.043a4.976,4.976,0,0,0-.566-.727,1.994,1.994,0,0,0-2.638-.213,1.918,1.918,0,0,0-.636,2.451,7.153,7.153,0,0,0,.7,1.185c1.651,2.367,3.316,4.725,4.971,7.089.583.833.575.834-.027,1.693q-2.553,3.638-5.1,7.278a5.08,5.08,0,0,0-.617,1.1,1.89,1.89,0,0,0,.5,2.112,1.957,1.957,0,0,0,2.24.38,2.848,2.848,0,0,0,1.149-1.1c1.412-2.017,2.819-4.038,4.243-6.046.208-.293.32-.709.806-.805.188.245.382.479.556.727q1.954,2.789,3.9,5.582a9.738,9.738,0,0,0,.91,1.19,1.974,1.974,0,0,0,2.625.294,2.02,2.02,0,0,0,.642-2.565,6.69,6.69,0,0,0-.6-.978c-1.7-2.43-3.382-4.867-5.109-7.275a1.1,1.1,0,0,1-.007-1.516c1.756-2.434,3.45-4.911,5.176-7.367a4.471,4.471,0,0,0,.669-1.206,1.972,1.972,0,0,0-1.068-2.4,2,2,0,0,0-2.691.842c-1.442,2.043-2.864,4.1-4.3,6.147-.237.338-.389.756-.8.953m12.718,3.791h.005q0,4.558,0,9.116a3.837,3.837,0,0,0,.153,1.366,2.009,2.009,0,0,0,2.017,1.406,2.062,2.062,0,0,0,1.887-1.737,5.2,5.2,0,0,0,.025-.806c0-1.346,0-2.692,0-4.038,0-1.253.006-1.254,1.3-1.259.692,0,1.385.018,2.077,0a8.976,8.976,0,0,0,3.708-.71,7.961,7.961,0,0,0-.88-14.871c-2.8-.759-5.657-.392-8.489-.326a1.857,1.857,0,0,0-1.775,1.828,6.382,6.382,0,0,0-.035.921q0,4.558,0,9.116" transform="translate(815 2929.252)" fill="#fff"/><path d="M682.866,54.219c-1.122-.458-2.145-.879-3.171-1.291a.694.694,0,0,1-.485-.7c0-.347-.007-.693-.007-1.04,0-14.1-.051-28.2.029-42.294.018-3.142-1.64-5.261-5.165-5.115-3.384.141-6.781.12-10.167,0a4.336,4.336,0,0,0-4.669,4.656c.039,11.71.013,23.42.011,35.13,0,2.7,0,5.393,0,8.089,0,1.1-.013,1.1-1.013,1.5-.848.338-1.691.689-2.55,1.04a2.036,2.036,0,0,1-.222-1.4q-.013-18.721-.007-37.441c0-2.234-.018-4.468.006-6.7a8.755,8.755,0,0,1,1.393-5.152,7.534,7.534,0,0,1,6.229-3.43c4.081-.082,8.166-.073,12.248-.006a7.769,7.769,0,0,1,7.519,6.712c.069.729.147,1.453.146,2.187q-.011,12.653-.008,25.308c0,4.619.009,9.239-.007,13.859-.007,1.993-.068,3.986-.107,6.1" transform="translate(784.239 3053)" fill="#fff"/><path d="M692.979,28.841c0,1.069.016,1.9,0,2.735a9.334,9.334,0,0,1-.124,3.091c-.368.966-1.353,1.545-2.08,2.279-2.951,2.979-5.925,5.934-8.893,8.9-.129.129-.228.325-.531.281a23.538,23.538,0,0,1-.066-3.293c.018-2.938-.349-2.013,1.694-4.082,3-3.038,6.034-6.044,9.056-9.06.235-.235.5-.444.948-.846" transform="translate(766.39 3033.065)" fill="#fff"/><path d="M692.922,67.679c.175,1.389-.008,2.769.088,4.136a3.465,3.465,0,0,1-1.271,2.9c-3.227,3.142-6.382,6.359-9.57,9.541-.208.207-.353.518-.7.543a.455.455,0,0,1-.157-.415c0-1.5,0-3-.012-4.5a1.623,1.623,0,0,1,.475-1.248q5.442-5.42,10.871-10.853c.046-.046.134-.051.274-.1" transform="translate(766.359 3006.22)" fill="#fff"/><path d="M681.149,123.562a18.255,18.255,0,0,0-.02-2.552,5.433,5.433,0,0,1,2.061-5.131c2.929-2.668,5.641-5.573,8.454-8.368.287-.285.5-.692.965-.746.258.158.222.408.223.63q.007,1.962-.005,3.924a2.085,2.085,0,0,1-.591,1.569q-5.283,5.255-10.544,10.531a.442.442,0,0,1-.544.142" transform="translate(766.522 2979.204)" fill="#fff"/><path d="M704.36,145.119a.951.951,0,0,1,.228.751c-.008,1.73-.009,3.461-.074,5.19-.034.893-.114.916-.981.783a28.3,28.3,0,0,0-5.43-.359,49.4,49.4,0,0,1,6.257-6.364" transform="translate(754.746 2952.694)" fill="#fff"/><path d="M687.527,25.71,681.341,31.9c-.05-.01-.029-.23-.03-.409-.01-1.654-.025-3.309-.008-4.963.008-.836.1-.931.936-.941,1.577-.018,3.155,0,4.732,0,.225,0,.472-.026.556.123" transform="translate(766.363 3035.323)" fill="#fff"/><path d="M728.33,243.03c.614,0,1.233-.051,1.841.009a3.8,3.8,0,0,1,.046,7.537c-1.219.111-2.454.047-3.682.062-.546.006-.731-.294-.729-.8.007-2-.014-3.994.006-5.991.007-.749.106-.817.906-.85.537-.022,1.075,0,1.613,0v.04" transform="translate(735.599 2885.051)" fill="#fff"/></g></svg>