<svg xmlns="http://www.w3.org/2000/svg" width="94.051" height="82.93" viewBox="0 0 94.051 82.93"><g transform="translate(0 -86.885)"><g transform="translate(0 86.885)"><path d="M0,107.577c.548-1.487.606-3.092,1.144-4.589C4.261,94.315,10.27,88.9,19.359,87.277c7.826-1.4,14.643.968,20.295,6.52,5.308,5.213,10.535,10.51,15.775,15.791a6.76,6.76,0,0,1,.088,9.64,6.69,6.69,0,0,1-9.618-.142c-2.633-2.606-5.273-5.207-7.84-7.878-.735-.764-1.127-.643-1.8.035q-10.621,10.684-21.292,21.319c-.983.983-.983.986-1.99-.021q-3.117-3.117-6.23-6.239A23.418,23.418,0,0,1,.464,114.576,9.885,9.885,0,0,0,0,112.171Z" transform="translate(0 -86.885)" fill="#fff"/><path d="M81.464,165.211a20.419,20.419,0,0,1-3.33.61,6.76,6.76,0,0,1-6.391-9c.05-.144.118-.283.16-.429.108-.373.516-.792.26-1.1-.309-.377-.81-.017-1.195.083-4.239,1.1-8.6-2.032-8.484-6.2a6.755,6.755,0,0,1,1.98-4.789Q74.11,134.8,83.7,125.16c.544-.547.81-.465,1.288.038q2.022,2.133,4.137,4.177a11.846,11.846,0,0,0,12.585,3.06,11.633,11.633,0,0,0,8.348-9.967,11.761,11.761,0,0,0-3.3-10.348c-2.348-2.456-4.787-4.826-7.177-7.243-.245-.248-.745-.457-.206-.928,2.806-2.46,5.513-5.017,8.972-6.628,13.209-6.153,29.189,1.636,32.247,15.888,1.852,8.632-.55,16.083-6.919,22.216-1.7,1.635-3.483,3.18-5.18,4.815-.545.525-.851.447-1.338-.052-1.8-1.842-3.6-3.677-5.463-5.449a8.874,8.874,0,0,0-9.071-2.22,8.367,8.367,0,0,0-6.2,6.61c-.3,1.4-.7,2-2.207,2.271a8.646,8.646,0,0,0-6.961,7.466c-.121.85-.349,1.23-1.354,1.377a8.593,8.593,0,0,0-7.192,5.8,8.689,8.689,0,0,0,1.655,9.178c1.454,1.69,3.105,3.214,4.7,4.779.44.432.53.692.011,1.14-1.181,1.021-2.286,2.129-3.461,3.156a6.621,6.621,0,0,1-8.52.447,6.761,6.761,0,0,1-2.137-8.272c.163-.381.313-.769.513-1.259" transform="translate(-47.143 -93.155)" fill="#fff"/><path d="M241.12,316.408a3.4,3.4,0,0,1-1.978,3.067,3.155,3.155,0,0,1-3.772-.419c-2.853-2.729-5.659-5.512-8.387-8.366a3.406,3.406,0,0,1,.246-4.807,3.481,3.481,0,0,1,4.89-.04c2.714,2.654,5.383,5.355,8.053,8.054a3.219,3.219,0,0,1,.947,2.511" transform="translate(-170.599 -251.35)" fill="#fff"/><path d="M277.868,279.757a3.431,3.431,0,0,1-2.158,3.228,3.345,3.345,0,0,1-3.89-.725c-1.123-1.084-2.211-2.2-3.315-3.306-1.472-1.471-2.955-2.931-4.415-4.413a3.527,3.527,0,0,1-.182-5.156,3.581,3.581,0,0,1,5.23.153q3.776,3.753,7.529,7.531a3.6,3.6,0,0,1,1.2,2.689" transform="translate(-198.342 -223.782)" fill="#fff"/><path d="M204.542,353.093a3.556,3.556,0,0,1-6.1,2.358c-2.152-2.133-4.29-4.282-6.433-6.424-.455-.454-.923-.9-1.361-1.366a3.553,3.553,0,1,1,5.039-5.011c2.614,2.58,5.2,5.192,7.79,7.793a3.4,3.4,0,0,1,1.068,2.648" transform="translate(-143.029 -279.035)" fill="#fff"/></g></g></svg>