<svg xmlns="http://www.w3.org/2000/svg" width="45" height="20" viewBox="0 0 45 20"><path d="M25,1.429A1.45,1.45,0,0,0,23.529,0H-18.529A1.45,1.45,0,0,0-20,1.429a1.45,1.45,0,0,0,1.471,1.429H23.529A1.45,1.45,0,0,0,25,1.429Z" transform="translate(20)" fill="#3a5f62"/><path d="M17.647,1.429A1.45,1.45,0,0,0,16.176,0H-18.529A1.45,1.45,0,0,0-20,1.429a1.45,1.45,0,0,0,1.471,1.429H16.176A1.45,1.45,0,0,0,17.647,1.429Z" transform="translate(27.353 8.571)" fill="#3a5f62"/><path d="M11.765,1.429A1.45,1.45,0,0,0,10.294,0H-18.529A1.45,1.45,0,0,0-20,1.429a1.45,1.45,0,0,0,1.471,1.429H10.294A1.45,1.45,0,0,0,11.765,1.429Z" transform="translate(33.235 17.143)" fill="#3a5f62"/></svg>