<svg xmlns="http://www.w3.org/2000/svg" width="25" height="20" viewBox="0 0 25 20"><path d="M0,1.429A1.45,1.45,0,0,1,1.471,0H23.529A1.45,1.45,0,0,1,25,1.429a1.45,1.45,0,0,1-1.471,1.429H1.471A1.45,1.45,0,0,1,0,1.429Z" fill="#fff"/><path d="M0,1.429A1.45,1.45,0,0,1,1.471,0H16.176a1.45,1.45,0,0,1,1.471,1.429,1.45,1.45,0,0,1-1.471,1.429H1.471A1.45,1.45,0,0,1,0,1.429Z" transform="translate(0 8.571)" fill="#fff"/><path d="M0,1.429A1.45,1.45,0,0,1,1.471,0h8.824a1.45,1.45,0,0,1,1.471,1.429,1.45,1.45,0,0,1-1.471,1.429H1.471A1.45,1.45,0,0,1,0,1.429Z" transform="translate(0 17.143)" fill="#fff"/></svg>