<svg xmlns="http://www.w3.org/2000/svg" xmlns:xlink="http://www.w3.org/1999/xlink" width="167.07" height="139.296" viewBox="0 0 167.07 139.296"><defs><clipPath id="a"><rect width="167.07" height="139.296" fill="#3a5f62"/></clipPath></defs><g clip-path="url(#a)"><path d="M0,68.944C1.481,66.8,2.912,64.613,4.453,62.51A96.977,96.977,0,0,1,41.159,32a98.337,98.337,0,0,1,37.8-9.48c1.89-.1,2.163-.334,2.171-2.247.024-5.723.012-11.445.015-17.168,0-.545-.024-1.093.027-1.634C81.294.179,81.562.025,83.538.009c2.324-.018,2.6.115,2.74,1.409a13.841,13.841,0,0,1,.033,1.47c0,5.723,0,11.446.014,17.168.006,2.2.195,2.366,2.438,2.476A97.94,97.94,0,0,1,166.15,67a4.129,4.129,0,0,1,0,5.2c-15.524,23.157-36.882,37.536-64.263,42.924a95.664,95.664,0,0,1-13.468,1.533c-1.814.1-2.08.327-2.086,2.146-.019,5.886.008,11.772-.019,17.659,0,.878.39,2.071-.673,2.5a5.69,5.69,0,0,1-3.844,0c-.677-.218-.63-.96-.634-1.556-.015-2.289-.012-4.578-.013-6.867,0-3.815.012-7.63-.005-11.445-.009-2.11-.253-2.342-2.33-2.439a96.43,96.43,0,0,1-43.87-12.7,96.438,96.438,0,0,1-33.9-32.247c-.321-.5-.694-.972-1.042-1.456V68.944m81.13,34.273h.022c0-2.18-.009-4.36.006-6.54,0-.592-.065-1.343.608-1.568a5.849,5.849,0,0,1,3.848-.019c1.089.4.617,1.606.692,2.483.055.649.011,1.307.012,1.961,0,3.324-.015,6.649.019,9.973.018,1.672.429,2,2.09,1.87.271-.021.541-.069.81-.113q23.945-3.943,33.531-26.237a36.153,36.153,0,0,0,2.681-10.916c.143-1.533-.123-1.82-1.665-1.914-.543-.033-1.089-.017-1.634-.018-3.761,0-7.521.014-11.281-.018-1.572-.013-1.79-.275-1.849-1.815-.013-.326-.007-.654,0-.981.017-2.173.161-2.337,2.32-2.345,4.087-.017,8.175.01,12.262-.023,1.722-.013,1.886-.234,1.81-1.906-.018-.381-.035-.764-.087-1.141a40.976,40.976,0,0,0-8.633-20.373A41.676,41.676,0,0,0,88.758,27.9c-2.091-.284-2.42-.029-2.433,2.089-.023,3.924,0,7.848-.012,11.772,0,2.463-.11,2.559-2.6,2.558-.109,0-.218,0-.327,0-2.04-.024-2.226-.191-2.235-2.263-.019-4.087.009-8.175-.027-12.262-.016-1.8-.429-2.131-2.171-1.924A41.037,41.037,0,0,0,61.386,34.1c-11.178,7.187-17.509,17.484-19.33,30.6-.273,1.964-.018,2.272,2.063,2.288,3.924.03,7.848.012,11.772.021,2.461.006,2.558.111,2.555,2.6,0,2.464-.09,2.557-2.591,2.563-4.033.009-8.066-.015-12.1.019-1.627.014-1.99.429-1.772,1.972a50.167,50.167,0,0,0,.876,4.985,41.605,41.605,0,0,0,14.779,23.3,41.11,41.11,0,0,0,21.471,8.858c1.641.179,1.973-.092,2.009-1.719.048-2.124.012-4.251.012-6.376m33.07,2.856c.383.435.8.175,1.19.037q1.384-.5,2.749-1.045A92.341,92.341,0,0,0,160.614,71.03a2.176,2.176,0,0,0-.025-2.9,92.2,92.2,0,0,0-45.384-35.111c-.376-.135-.772-.477-1.193-.008.139.777.8,1.148,1.319,1.582a37.756,37.756,0,0,1,4.344,4.426A46.986,46.986,0,0,1,130.682,64.6c.257,2.2.366,2.391,2.579,2.4,5.721.019,11.443.01,17.164.015.545,0,1.09.008,1.633.04.451.026.939.149,1.066.617a5.912,5.912,0,0,1-.037,3.845c-.442,1.047-1.633.638-2.511.643-5.885.032-11.77.009-17.654.033-1.793.007-2.033.256-2.2,1.893a46.843,46.843,0,0,1-15.815,30.978c-.306.277-.78.449-.708,1.008m-60.859.236c-.058-.332-.044-.458-.1-.536a22.029,22.029,0,0,0-2.721-2.575A47.533,47.533,0,0,1,36.777,74.582c-.257-2.222-.392-2.389-2.6-2.4-4.687-.017-9.373-.006-14.06-.008-1.416,0-2.834-.022-4.25,0-1.128.016-1.671-.436-1.736-1.632-.182-3.357-.065-3.518,3.288-3.527q.9,0,1.8,0,7.357,0,14.714,0c2.5,0,2.593-.094,2.931-2.625.151-1.134.212-2.284.435-3.4A47.622,47.622,0,0,1,52.606,34.055c.3-.269.807-.427.656-1.023-.626-.38-1.162.039-1.689.237A92.438,92.438,0,0,0,6.741,68.355a1.891,1.891,0,0,0,0,2.482A91.118,91.118,0,0,0,16.794,83.282,92.108,92.108,0,0,0,50.185,105.4a6.66,6.66,0,0,0,3.156.913" transform="translate(0 -0.004)" fill="#3a5f62"/><path d="M30.45,258.243c0-3.216-.015-6.431.006-9.646.012-1.842.24-2.042,2.092-2.074.327-.006.654-.007.981,0,1.789.049,2.053.294,2.073,2.136.058,5.121-.082,10.244.1,15.366.067,1.845.193,2.05,2.081,2.06,4.959.026,9.919,0,14.878.027.834,0,1.96-.3,2.308.735a5.507,5.507,0,0,1-.058,3.839c-.292.714-1.117.562-1.755.564q-6.376.02-12.753.011c-2.125,0-4.251.023-6.376-.009-2.689-.04-3.545-.877-3.572-3.53-.032-3.16-.007-6.321-.008-9.482" transform="translate(-16.309 -132.067)" fill="#ffb349"/><path d="M30.458,13.172c0-3.159-.02-6.319.006-9.478.022-2.767.89-3.669,3.6-3.679q9.478-.036,18.956,0c1.957,0,2.137.211,2.167,2.166.005.327.006.654-.005.981-.059,1.7-.3,1.968-2.056,1.976-4.575.023-9.151.008-13.727.009-.272,0-.545,0-.817,0-2.812.013-2.967.163-2.97,2.947q-.006,7.435-.006,14.871c0,1.665-.088,1.736-1.754,1.774-3.4.077-3.4.077-3.4-3.393q0-4.085,0-8.171" transform="translate(-16.313 0)" fill="#ffb349"/><path d="M301.726,13.178c0,3.159.015,6.318-.006,9.477-.012,1.836-.248,2.043-2.093,2.073-.327.005-.654,0-.981-.005-1.8-.05-2.05-.276-2.058-2.136-.023-4.9-.007-9.8-.021-14.706-.007-2.546-.17-2.718-2.665-2.726-4.793-.015-9.586,0-14.379-.01-2.364,0-2.512-.163-2.525-2.493,0-.381.011-.762.009-1.143A1.314,1.314,0,0,1,278.517.017c1.2,0,2.4-.013,3.595-.013q7.679,0,15.359,0c3.562.006,4.251.715,4.258,4.347q.008,4.412,0,8.823Z" transform="translate(-148.396 -0.001)" fill="#ffb349"/><path d="M301.719,258.164c0,3.158.025,6.317-.008,9.475-.026,2.539-.94,3.486-3.45,3.5q-9.638.045-19.277,0c-1.756-.005-1.943-.233-1.985-2.007,0-.055,0-.109,0-.163-.039-2.852.058-2.958,2.876-2.962,4.683-.007,9.366,0,14.049-.009,2.419-.006,2.637-.217,2.645-2.591.015-4.847-.006-9.694.019-14.54,0-.83-.282-1.961.8-2.255a5.548,5.548,0,0,1,3.834.118c.612.287.491,1.042.493,1.632.01,3.268,0,6.535,0,9.8" transform="translate(-148.393 -131.966)" fill="#ffb349"/><path d="M138.809,127.757a19.288,19.288,0,1,1,19.285,19.163c-11,.04-19.525-9.2-19.285-19.163m19.4,14.006a14.124,14.124,0,1,0-14.224-14.218,14.082,14.082,0,0,0,14.224,14.218" transform="translate(-74.36 -58.042)" fill="#ffb349"/></g></svg>