<svg xmlns="http://www.w3.org/2000/svg" width="107.771" height="94.08" viewBox="0 0 107.771 94.08"><g transform="translate(-1610.317 -3705.43)"><path d="M977.867,543.456c-5.625,0-11.25.031-16.874-.012-3.092-.023-5.464-1.272-6.711-4.278a5.464,5.464,0,0,1-.348-1.648c-.5-5.439.278-10.623,3.2-15.335a23.259,23.259,0,0,1,17.1-11.386c9.986-1.411,17.885,2.282,23.678,10.418a21.027,21.027,0,0,1,3.973,12.233c.01,1.3.071,2.606-.041,3.912a6.633,6.633,0,0,1-6.934,6.1c-5.682.031-11.363.008-17.045.008Z" transform="translate(686.365 3256.03)" fill="#fff"/><path d="M991.9,476.618a12.226,12.226,0,1,1,12.33-12.26,12.2,12.2,0,0,1-12.33,12.26" transform="translate(672.237 3287.78)" fill="#fff"/><path d="M1076.26,536.157c-3.179,0-6.358-.029-9.536.02-.8.012-1.045-.194-1.158-1.005a29.109,29.109,0,0,0-4.277-12.036c-.439-.676-.139-1,.353-1.379a17,17,0,0,1,7.509-3.418,17.778,17.778,0,0,1,17.04,5.779,16.164,16.164,0,0,1,3.666,6.449,4.069,4.069,0,0,1-4.059,5.544c-3.177.069-6.358.015-9.537.015Z" transform="translate(627.977 3251.948)" fill="#fff"/><path d="M902.155,536.125c-3.068,0-6.141-.112-9.2.03a4.24,4.24,0,0,1-4.244-5.958c.425-.925.729-1.916,1.239-2.789a18.121,18.121,0,0,1,26.37-5.99c1.275.85,1.238.913.47,2.275a27.951,27.951,0,0,0-3.627,10.346c-.02.168-.068.333-.1.5-.32,1.58-.32,1.582-1.87,1.583q-4.517,0-9.034,0" transform="translate(722 3251.938)" fill="#fff"/><path d="M997.186,405.711c-.386-.016-.724-.341-1.1-.587-2.186-1.424-4.41-2.794-6.537-4.3a1.926,1.926,0,0,0-2.59.025c-1.854,1.305-3.784,2.5-5.682,3.744l-1.138.746c-.435.285-.894.6-1.388.184-.41-.345-.253-.776-.124-1.244.75-2.71,1.372-5.459,2.211-8.14a1.688,1.688,0,0,0-.7-2.144c-2.007-1.576-3.986-3.186-5.974-4.787a6.25,6.25,0,0,1-1.02-.9.76.76,0,0,1,.464-1.293,3.2,3.2,0,0,1,.677-.048c2.663-.114,5.326-.278,7.991-.316a1.924,1.924,0,0,0,2.134-1.47c.65-1.985,1.44-3.924,2.176-5.881.239-.635.468-1.276.749-1.893.2-.444.331-1.032,1.01-.979.563.045.692.553.851.957.724,1.839,1.4,3.7,2.123,5.536,1.758,4.5.624,3.587,5.129,3.715,2.043.058,4.064.446,6.114.351a.89.89,0,0,1,.985.51c.189.5-.088.851-.474,1.159q-3.26,2.6-6.506,5.217c-1.241,1-1.221,1-.794,2.534q1.105,3.981,2.17,7.973c.243.91.009,1.34-.762,1.327" transform="translate(675.951 3329)" fill="#fff"/><path d="M894.022,421.1c.709-2.674,1.217-5.176,2.055-7.562.615-1.753.417-2.871-1.185-3.952-1.877-1.266-3.564-2.813-5.334-4.238-.221-.178-.457-.34-.664-.533-.293-.273-.591-.569-.414-1.025.146-.374.492-.418.84-.458a29.414,29.414,0,0,1,3.565-.3,44.893,44.893,0,0,0,5.448-.231,1.652,1.652,0,0,0,1.579-1.224c.766-2.13,1.59-4.238,2.39-6.356.18-.476.326-.969.547-1.426.21-.432.269-1.05.96-1.04.66.01.789.542.971,1.02.783,2.062,1.535,4.137,2.359,6.183,1.287,3.191.291,2.651,4.015,3.009,2.2.212,4.437-.059,6.633.336.465.084,1.108-.157,1.306.517.2.7-.381,1.02-.806,1.365-1.941,1.576-3.9,3.133-5.851,4.691-1.534,1.223-1.523,1.215-1.011,3.1.652,2.4,1.256,4.8,1.93,7.194.174.614.52,1.225-.121,1.7-.689.509-1.161-.2-1.633-.5-2.158-1.362-4.344-2.7-6.384-4.224a2.063,2.063,0,0,0-2.85.039c-2.1,1.46-4.263,2.815-6.4,4.213-.19.124-.375.257-.573.367-.292.163-.582.4-.939.151s-.519-.588-.43-.812" transform="translate(721.941 3320.116)" fill="#fff"/><path d="M1062.913,421.017c.639-2.4,1.2-4.581,1.8-6.751.878-3.166.889-3.162-1.589-5.142q-2.393-1.912-4.783-3.83a4.213,4.213,0,0,1-.633-.566c-.6-.725-.425-1.255.5-1.385a26.8,26.8,0,0,1,3.731-.316,41.369,41.369,0,0,0,5.272-.228,1.6,1.6,0,0,0,1.56-1.218c.914-2.613,1.972-5.176,2.945-7.77.185-.492.28-1.006.922-1.059.694-.057.812.521.988.979.992,2.584,1.992,5.166,2.933,7.769a1.733,1.733,0,0,0,1.685,1.341c1.645.14,3.289.181,4.934.184a28.913,28.913,0,0,1,3.731.29c.443.058.978-.025,1.144.528.156.522-.241.824-.6,1.114-1.595,1.277-3.179,2.567-4.781,3.834-2.93,2.316-2.932,2.31-1.909,5.93.5,1.787,1.046,3.567,1.474,5.372.13.545.576,1.244-.068,1.744-.684.532-1.178-.171-1.645-.465-2.255-1.421-4.491-2.876-6.679-4.4a1.739,1.739,0,0,0-2.279,0c-2.342,1.6-4.731,3.129-7.109,4.673-.356.231-.715.639-1.208.231a.985.985,0,0,1-.334-.858" transform="translate(629.998 3320.119)" fill="#fff"/><path d="M1075.536,472.8a9.139,9.139,0,1,1,.008,18.278,9.248,9.248,0,0,1-9.118-9.083,9.155,9.155,0,0,1,9.11-9.2" transform="translate(625.067 3276.55)" fill="#fff"/><path d="M915.777,472.816a9.121,9.121,0,1,1,0,18.242,9.121,9.121,0,1,1,0-18.242" transform="translate(712.059 3276.546)" fill="#fff"/></g></svg>