<svg xmlns="http://www.w3.org/2000/svg" xmlns:xlink="http://www.w3.org/1999/xlink" width="139.233" height="139.296" viewBox="0 0 139.233 139.296"><defs><clipPath id="a"><rect width="139.233" height="139.296" fill="#3a5f62"/></clipPath></defs><g transform="translate(0)"><g transform="translate(0)" clip-path="url(#a)"><path d="M72.059,18.565q0,7.423,0,14.845a13.506,13.506,0,0,1-.032,1.362,2.4,2.4,0,0,1-2.2,2.309,11.019,11.019,0,0,1-1.21.043A30.96,30.96,0,0,0,42.935,51.137a32.231,32.231,0,0,0-5.827,19.405A31.255,31.255,0,0,0,45.521,91.56a31.5,31.5,0,0,0,30.91,9.807A33.092,33.092,0,0,0,93.079,92a32.079,32.079,0,0,0,8.735-17.622,26.979,26.979,0,0,0,.341-4.07c.017-2.158.91-3.092,3.016-3.1q15.526-.025,31.053,0a3.049,3.049,0,0,1,1.892.417,2.474,2.474,0,0,1,1.085,2.5,2.526,2.526,0,0,1-1.962,2.068,7.789,7.789,0,0,1-1.507.087c-2.929.006-5.857-.009-8.786,0-1.71.007-2.131.441-2.283,2.1A56.06,56.06,0,0,1,83.03,123.653c-2.193.575-3.721-.5-3.614-2.512.067-1.265.706-1.982,2.147-2.374a56.146,56.146,0,0,0,8.821-3.175,50.5,50.5,0,0,0,27.467-32.3,49.084,49.084,0,0,0,1.618-9.073c.134-1.479-.36-2.093-1.841-2.115q-4.165-.062-8.331.013c-1.6.03-2.039.467-2.248,2.045A38.276,38.276,0,0,1,101.792,89.2a37.381,37.381,0,0,1-13.9,13.4,36.722,36.722,0,0,1-13.575,4.478c-1.472.181-2.248.608-2.247,2.567q.007,11.967.011,23.934c0,.806.1,1.611.141,2.417a3.835,3.835,0,0,1-.47,2.041A2.335,2.335,0,0,1,69.5,139.3a2.2,2.2,0,0,1-2.105-1.46,5.155,5.155,0,0,1-.377-2.224c.046-1.816.1-3.631.148-5.447.015-.656.006-1.313,0-1.969-.024-2.622-.34-2.938-2.891-3.184a52.6,52.6,0,0,1-20.124-6.175A55.045,55.045,0,0,1,19.379,92.155,54.225,54.225,0,0,1,16.265,83c-.036-.147-.091-.29-.117-.439A2.5,2.5,0,0,1,17.934,79.5a2.586,2.586,0,0,1,3.046,1.86c.266.814.454,1.654.693,2.478a50.29,50.29,0,0,0,40.679,35.786c.945.156,1.9.281,2.852.362,1.2.1,1.868-.467,1.823-1.638-.108-2.779.14-5.55.135-8.325,0-2.4-.325-2.744-2.745-3.059a36.55,36.55,0,0,1-20.094-9.433A37.482,37.482,0,0,1,32.528,76.188c-.154-.791-.173-1.609-.34-2.4a1.606,1.606,0,0,0-1.768-1.509c-.4-.028-.808-.012-1.211-.012l-25.449,0c-.4,0-.81.017-1.211-.017A2.639,2.639,0,0,1,0,69.735a2.59,2.59,0,0,1,2.39-2.665,8.482,8.482,0,0,1,1.21-.035c2.929,0,5.861-.087,8.785.033,1.773.073,2.345-.827,2.4-2.185a47.84,47.84,0,0,1,2.177-11.878,56.263,56.263,0,0,1,28.374-33.88A46.262,46.262,0,0,1,55.2,15.3a3.14,3.14,0,0,1,1.936-.026,2.494,2.494,0,0,1,1.732,2.111,2.453,2.453,0,0,1-1.26,2.418,5.262,5.262,0,0,1-1.265.487A50.526,50.526,0,0,0,24.056,48.422a51.623,51.623,0,0,0-4.121,15.744c-.015.151-.035.3-.048.452-.177,2.069.236,2.553,2.307,2.573q3.635.035,7.271,0c2.092-.019,2.434-.341,2.729-2.363A37.757,37.757,0,0,1,43,42.955,36.714,36.714,0,0,1,62.935,32.52c.843-.149,1.7-.243,2.54-.389,1.1-.19,1.458-.6,1.52-1.713.028-.5.016-1.01.016-1.514q0-11.664-.007-23.328a25.559,25.559,0,0,1,.21-3.322A2.35,2.35,0,0,1,69.756,0a2.318,2.318,0,0,1,2.281,2.5c.037,4.7.023,9.391.029,14.087q0,.985,0,1.969Z" transform="translate(0 0)" fill="#3a5f62"/><path d="M200.049,65.224c-1.867,0-3.735.028-5.6-.011a3.268,3.268,0,0,0-2.562,1.032q-9.693,9.79-19.427,19.539c-.782.786-1.531,1.606-2.319,2.387a2.659,2.659,0,0,1-2.221.741,2.4,2.4,0,0,1-2-3.437,5.812,5.812,0,0,1,1.325-1.636c6.941-6.975,13.865-13.968,20.844-20.9a4.315,4.315,0,0,0,1.44-3.448c-.093-3.429,0-6.863-.051-10.294a4.3,4.3,0,0,1,1.392-3.35c5.92-5.854,11.8-11.754,17.686-17.638.179-.178.362-.351.54-.53a2.6,2.6,0,0,1,3.051-.652,2.51,2.51,0,0,1,1.473,2.585c-.018,2.826,0,5.652,0,8.478,0,.4-.021.81.015,1.21a1.7,1.7,0,0,0,1.828,1.8c.9.059,1.816.022,2.724.025,2.372.006,4.745-.033,7.115.032a2.538,2.538,0,0,1,1.762,4.431q-9.42,9.312-18.823,18.639a3.365,3.365,0,0,1-2.584,1.016c-1.866-.032-3.734-.009-5.6-.009Zm-5.575-10.8h0c0,1.209-.012,2.419,0,3.629.02,1.639.432,2.095,2.041,2.116,2.419.031,4.838-.009,7.257.012a2.924,2.924,0,0,0,2.26-.978c3.283-3.345,6.617-6.638,9.93-9.954a5.625,5.625,0,0,0,.8-.9,1.365,1.365,0,0,0-.8-2.156,4.412,4.412,0,0,0-1.2-.115c-1.058-.015-2.117.015-3.175-.01-2.266-.053-3.223-1.009-3.256-3.24-.017-1.109-.01-2.217-.008-3.326a1.665,1.665,0,0,0-.919-1.753,1.606,1.606,0,0,0-1.888.568q-5.161,5.209-10.316,10.424a2.5,2.5,0,0,0-.742,1.907c.02,1.258.006,2.517.006,3.776" transform="translate(-98.616 -15.94)" fill="#ffb349"/><path d="M139.656,161.815A22.289,22.289,0,0,1,134,117.856a16.458,16.458,0,0,1,4.958-.488,2.42,2.42,0,0,1,2.534,2.289,2.494,2.494,0,0,1-2.279,2.553,33.629,33.629,0,0,0-4.627.727c-6.919,2.167-11.2,6.806-12.308,13.925a16.231,16.231,0,0,0,7.018,16.654,16.927,16.927,0,0,0,21.4-1.188,16.6,16.6,0,0,0,4.589-7.378,23.9,23.9,0,0,0,1.012-5.637,2.578,2.578,0,0,1,2.565-2.477,2.613,2.613,0,0,1,2.638,2.57,11.344,11.344,0,0,1-.045,1.966,22.921,22.921,0,0,1-5.644,12.975,21.73,21.73,0,0,1-13.3,7.2,15.08,15.08,0,0,1-2.859.268" transform="translate(-69.577 -69.844)" fill="#3a5f62"/></g></g></svg>