<svg xmlns="http://www.w3.org/2000/svg" xmlns:xlink="http://www.w3.org/1999/xlink" width="201.141" height="53.575" viewBox="0 0 201.141 53.575"><defs><clipPath id="a"><rect width="201.141" height="53.575" fill="none"/></clipPath></defs><g clip-path="url(#a)"><path d="M340.664,119.362c0,7.041-3.722,10.763-10.763,10.763H294.542l3.154-1.951a7.649,7.649,0,0,0,2.016-2.718l.078-.208,30.113.08c4.123,0,5.962-1.839,5.962-5.965s-1.839-5.964-5.965-5.964H299.627v-4.8h30.6c3.846,0,5.638-1.895,5.638-5.964,0-4.126-1.839-5.965-5.965-5.965H299.627v-4.8H329.9c7.041,0,10.763,3.722,10.763,10.763,0,3.749-1.041,6.552-3.1,8.363,2.058,1.809,3.1,4.613,3.1,8.362" transform="translate(-245.422 -76.552)" fill="#3a5f62"/><path d="M308.384,299.754c.01-.02.021-.041.03-.061h-.008c-.008.02-.014.041-.022.061" transform="translate(-256.955 -249.714)" fill="#3a5f62"/><path d="M277.048,0a4.457,4.457,0,1,0,4.457,4.457A4.457,4.457,0,0,0,277.048,0" transform="translate(-227.131)" fill="#ffb449"/><path d="M285.033,70.353v36.263h.452a4.7,4.7,0,0,0,4.337-2.878c.009-.022.018-.045.028-.076a4.675,4.675,0,0,0,.341-1.752V65.647h-.451a4.711,4.711,0,0,0-4.706,4.706" transform="translate(-237.498 -54.699)" fill="#ffb449"/><path d="M44.605,109.98a4.972,4.972,0,0,0-4.238-2.345H7.127v1.2a5.016,5.016,0,0,0,5.01,5.01H40.621v5.516a5.971,5.971,0,0,1-5.964,5.964H10.762A5.971,5.971,0,0,1,4.8,119.365V102.638a5.971,5.971,0,0,1,5.964-5.964H34.657c3.9,0,5.734,1.626,5.945,5.272a2.011,2.011,0,0,0,2,1.9h.784a2.013,2.013,0,0,0,2.009-2.108c-.306-6.449-4.02-9.858-10.741-9.858H10.762A10.774,10.774,0,0,0,0,102.638v16.727a10.774,10.774,0,0,0,10.762,10.762H34.657a10.774,10.774,0,0,0,10.762-10.762v-7.078a3.686,3.686,0,0,0-.814-2.307" transform="translate(0 -76.554)" fill="#3a5f62"/><path d="M314.2,301.2h0Z" transform="translate(-261.8 -250.973)" fill="#3a5f62"/><path d="M294.537,321.244l-.005,0,0,0Z" transform="translate(-245.413 -267.671)" fill="#3a5f62"/><path d="M649.988,175.81a.632.632,0,1,0-.627-.638.618.618,0,0,0,.627.638" transform="translate(-541.068 -145.436)" fill="#3a5f62"/><path d="M679.982,202.386a.643.643,0,0,0-1.286-.01.634.634,0,0,0,.638.638.648.648,0,0,0,.648-.627" transform="translate(-565.511 -168.103)" fill="#3a5f62"/><path d="M689.415,201.748a.629.629,0,0,0-.627.627.618.618,0,0,0,.627.638.632.632,0,1,0,0-1.265" transform="translate(-573.92 -168.103)" fill="#3a5f62"/><path d="M651.367,170.556V169.1l.094-1.087a4.908,4.908,0,0,0-1.495-.24,2.4,2.4,0,0,0-2.582,2.561,2.184,2.184,0,0,0,.314,1.118h-1.819c-.512,0-.763-.272-.763-.826v-2.7l-1.244.272.209,1.348v1.077c0,.554-.251.826-.763.826h-1.433c-.512,0-.763-.345-.763-1.045v-2.425l-1.223.293.2,1.38v1.808a2.871,2.871,0,0,1-.617,1.9,1.731,1.731,0,0,1-1.38.669c-1.307,0-2.07-1.024-2.07-2.655V169.51h-1.025v1.9a3.635,3.635,0,0,0,.69,2.362,2.763,2.763,0,0,0,2.258.92,2.878,2.878,0,0,0,3.115-2.373,1.993,1.993,0,0,0,.565.073h1.955a1.8,1.8,0,0,1,2.028,0h3.408c1.557,0,2.341-.617,2.341-1.84m-2.948-.418c0-1.1.439-1.641,1.317-1.641a1.753,1.753,0,0,1,.544.073l.083.606a5.922,5.922,0,0,1,.073.878c0,.93-.376,1.4-1.118,1.4-.6,0-.9-.439-.9-1.317" transform="translate(-529.108 -139.795)" fill="#3a5f62"/><path d="M738.977,144.782l-.387.042h-.512q0-.658.439-.659c.094-.011.219.063.376.2.052-.136.094-.24.125-.324a1.1,1.1,0,0,0-.627-.209c-.533,0-.836.418-.836.993h-.376v.387h2.153Z" transform="translate(-614.241 -119.845)" fill="#3a5f62"/><path d="M755.108,156.379a.632.632,0,1,0-.627-.638.618.618,0,0,0,.627.638" transform="translate(-628.657 -129.246)" fill="#3a5f62"/><path d="M765.136,156.379a.632.632,0,1,0-.627-.638.618.618,0,0,0,.627.638" transform="translate(-637.013 -129.246)" fill="#3a5f62"/><path d="M749.1,156.411v3.324c0,.575-.251.857-.763.857h-1.955c-.5,0-.753-.272-.753-.826v-2.655l-1.244.282.219,1.359v1.014c0,.554-.261.826-.774.826H742.6c-.5,0-.753-.282-.753-.857V154.8l-1.223.282.178,1.338v3.554a1.436,1.436,0,0,0,1.547,1.557h1.767a1.639,1.639,0,0,0,1-.314,1.6,1.6,0,0,0,1.024.314h2.446a1.439,1.439,0,0,0,1.557-1.557v-5.237l-1.223.293Z" transform="translate(-617.114 -128.933)" fill="#3a5f62"/><path d="M804.844,161.741h1.035v-5.362l.115-1.391-1.307.1.157,1.3Z" transform="translate(-670.491 -129.141)" fill="#3a5f62"/><path d="M834.661,154.77a.643.643,0,0,0,0-1.286.64.64,0,0,0-.638.638.63.63,0,0,0,.638.648" transform="translate(-694.934 -127.888)" fill="#3a5f62"/><path d="M844.638,154.77a.629.629,0,0,0,.627-.627.636.636,0,0,0-.627-.658.649.649,0,0,0-.648.638.638.638,0,0,0,.648.648" transform="translate(-703.239 -127.888)" fill="#3a5f62"/><path d="M842.254,160.872a1.643,1.643,0,0,0-.711-1.4,2.954,2.954,0,0,0-1.8-.512,3.262,3.262,0,0,0-2.08.888,5.043,5.043,0,0,0-1.348,1.557v-3.031l.115-1.38-1.307.115.157,1.286v4.077h-1.913c-.512,0-.763-.282-.763-.847v-3.5q-.58.11-1.254.282l.063.47h-.335a2.511,2.511,0,0,0-1.777.627,2.091,2.091,0,0,0-.669,1.631c0,1.254.679,2.049,1.8,2.049a2.918,2.918,0,0,0,1.348-.3,1.732,1.732,0,0,0,1.328.533h9.147Zm-10.673,1.317a3.3,3.3,0,0,1-.909.125c-.638,0-.962-.46-.972-1.369a1.339,1.339,0,0,1,1.317-1.37c.178,0,.366-.01.565-.021Zm9.617.282h-4.861a4.347,4.347,0,0,1,1.171-1.558,3.118,3.118,0,0,1,2.007-1.066c1.118,0,1.683.4,1.683,1.192Z" transform="translate(-690.443 -130.812)" fill="#3a5f62"/><path d="M927.656,157.423l-1.234.282.188,1.359v1.024c0,.554-.251.826-.742.826a1.237,1.237,0,0,1-.9-.387v-2.7l-1.024.23v2.028c0,.554-.251.826-.742.826a1.32,1.32,0,0,1-.93-.366v-2.718l-1.024.23-.021,2.017c0,.554-.251.826-.752.826h-1.234c-.5,0-.753-.282-.753-.857v-4.934l-1.223.282.178,1.338v3.554a1.436,1.436,0,0,0,1.547,1.557h1.735a1.572,1.572,0,0,0,1.119-.4,1.361,1.361,0,0,0,.2-.23,1.921,1.921,0,0,0,1.422.627,1.446,1.446,0,0,0,1.265-.6,1.9,1.9,0,0,0,1.411.6,1.421,1.421,0,0,0,1.516-1.516Z" transform="translate(-764.294 -129.245)" fill="#3a5f62"/><path d="M994.569,159.975v-5.237l-1.223.293.178,1.38v3.324c0,.575-.251.857-.763.857h-2.634v-3.606H988.6a2.354,2.354,0,0,0-1.777.711,2.538,2.538,0,0,0-.669,1.84,1.944,1.944,0,0,0,.585,1.485,1.854,1.854,0,0,0,1.369.512h.993a2.03,2.03,0,0,1-1.422,1.9l.219.408a2.689,2.689,0,0,0,2.206-2.31h2.906a1.439,1.439,0,0,0,1.557-1.557m-5.5.617h-.878c-.648,0-.972-.418-.972-1.244,0-1.087.491-1.756,1.317-1.756h.533Z" transform="translate(-821.695 -128.933)" fill="#3a5f62"/><path d="M1066.345,192.973a.651.651,0,0,0-.648.648.63.63,0,0,0,.648.638.643.643,0,0,0,0-1.286" transform="translate(-887.972 -160.791)" fill="#3a5f62"/><path d="M1098.418,203.013a.632.632,0,1,0,0-1.265.629.629,0,0,0-.627.627.619.619,0,0,0,.627.638" transform="translate(-914.714 -168.103)" fill="#3a5f62"/><path d="M1088.985,202.386a.643.643,0,0,0-1.286-.01.634.634,0,0,0,.638.638.648.648,0,0,0,.648-.627" transform="translate(-906.305 -168.103)" fill="#3a5f62"/><path d="M1145.367,156.379a.632.632,0,1,0-.627-.627.622.622,0,0,0,.627.627" transform="translate(-953.833 -129.246)" fill="#3a5f62"/><path d="M1075.835,159.976v-5.237l-1.223.293.178,1.38v3.324c0,.575-.251.857-.763.857h-2.206a8.722,8.722,0,0,0-1.3-2.341,2.924,2.924,0,0,0-2.153-1.38c-.92,0-1.631.826-1.746,2.2l1.087-.126a2.312,2.312,0,0,1-.146-.7c0-.387.157-.585.47-.585.428,0,.941.387,1.516,1.171a8.756,8.756,0,0,1,1.045,1.767h-4.673c-.5,0-.753-.282-.753-.857V154.8l-1.244.282.2,1.4v3.251c0,.575-.251.857-.753.857h-1.234c-.512,0-.763-.272-.763-.826v-2.7l-1.244.272.209,1.348v1.077c0,.554-.251.826-.763.826h-1.245c-.512,0-.763-.282-.763-.847v-1.181a1.433,1.433,0,0,0-.649-1.2,2.529,2.529,0,0,0-1.536-.47,2.367,2.367,0,0,0-1.526.491,1.719,1.719,0,0,0-.658,1.422h.575c0-.627.659-1.035,1.464-1.035q1.286,0,1.286.941v.878h-3.805v1.62c0,1.516.951,2.4,2.864,2.645l.241-.47c-1.307-.136-2.07-.909-2.07-1.84l-.01-1.066h2.948a1.374,1.374,0,0,0,1.474,1.056h1.683a1.8,1.8,0,0,1,2.028,0h1.767a1.493,1.493,0,0,0,.993-.324,1.591,1.591,0,0,0,1.035.324h8.6a1.439,1.439,0,0,0,1.557-1.557" transform="translate(-877.161 -128.933)" fill="#3a5f62"/><path d="M1198.428,161.741h1.035v-5.362l.115-1.391-1.307.1.157,1.3Z" transform="translate(-998.437 -129.141)" fill="#3a5f62"/><path d="M636.3,222.011a1.355,1.355,0,0,1,.628-.559,2.544,2.544,0,0,1,1.033-.181q.351,0,.772.037t.825.085q.4.048.682.1l.032-.7q-.277-.064-.687-.133t-.862-.112q-.453-.042-.868-.043a3.328,3.328,0,0,0-1.379.25,2.055,2.055,0,0,0-.873.735,3.173,3.173,0,0,0-.458,1.193,8.909,8.909,0,0,0-.133,1.635,8.623,8.623,0,0,0,.133,1.6,3.223,3.223,0,0,0,.453,1.187,2.01,2.01,0,0,0,.873.735,3.429,3.429,0,0,0,1.406.25q.266,0,.6-.027t.676-.069c.227-.028.44-.057.639-.085s.359-.053.48-.075V224.21h-2.034v.756h1.193v2.225q-.171.032-.431.064t-.538.053q-.277.021-.522.021a2.144,2.144,0,0,1-1.283-.325,1.654,1.654,0,0,1-.6-1,7.488,7.488,0,0,1-.16-1.693,8.8,8.8,0,0,1,.09-1.358,2.682,2.682,0,0,1,.314-.948" transform="translate(-529.108 -183.731)" fill="#3a5f62"/><path d="M678.408,237.7a3.9,3.9,0,0,1-.618.255,2.682,2.682,0,0,1-.852.128,1.112,1.112,0,0,1-.7-.186.928.928,0,0,1-.3-.6,7.118,7.118,0,0,1-.069-1.118V233.4h-.82v2.779a7.014,7.014,0,0,0,.133,1.512,1.44,1.44,0,0,0,.495.863,1.693,1.693,0,0,0,1.044.277,2.82,2.82,0,0,0,.953-.144,4.9,4.9,0,0,0,.74-.335v.373h.82V233.4h-.82Z" transform="translate(-562.467 -194.478)" fill="#3a5f62"/><rect width="0.82" height="7.635" transform="translate(118.358 36.614)" fill="#3a5f62"/><path d="M723.988,218.919q-.224-.011-.351-.011a1.839,1.839,0,0,0-.841.165.957.957,0,0,0-.458.591,4.028,4.028,0,0,0-.138,1.193v.468h-.671v.713h.671v4.611h.831v-4.611h1.533v-.713H723.03v-.458a3.1,3.1,0,0,1,.069-.745.567.567,0,0,1,.24-.367.919.919,0,0,1,.469-.1q.17,0,.442.005t.463.016l.011-.692a2.051,2.051,0,0,0-.3-.037q-.213-.016-.437-.027" transform="translate(-601.2 -182.401)" fill="#3a5f62"/><rect width="0.852" height="7.358" transform="translate(126.781 36.89)" fill="#3a5f62"/><path d="M779.2,233.367a1.141,1.141,0,0,0-.549-.458,2.419,2.419,0,0,0-.905-.144,2.38,2.38,0,0,0-.6.08,5.092,5.092,0,0,0-.58.186,3.235,3.235,0,0,0-.453.213v-.373h-.82V238.2h.82v-4.3a3.367,3.367,0,0,1,.4-.176,3.728,3.728,0,0,1,.527-.149,2.712,2.712,0,0,1,.549-.059,1.182,1.182,0,0,1,.73.186.958.958,0,0,1,.319.6,6.1,6.1,0,0,1,.08,1.108v2.79h.831v-2.822a7.672,7.672,0,0,0-.08-1.2,2.168,2.168,0,0,0-.277-.809" transform="translate(-645.999 -193.947)" fill="#3a5f62"/><path d="M811.187,235.373a5.141,5.141,0,0,0-1.059-.266,6.527,6.527,0,0,1-.862-.192.8.8,0,0,1-.4-.239.619.619,0,0,1-.106-.378.7.7,0,0,1,.149-.479.8.8,0,0,1,.4-.239,2.2,2.2,0,0,1,.575-.069q.256,0,.6.027t.682.064q.34.037.6.08l.021-.713q-.245-.043-.586-.091t-.7-.08c-.238-.021-.456-.032-.655-.032a2.956,2.956,0,0,0-.921.144,1.5,1.5,0,0,0-.719.484,1.446,1.446,0,0,0-.277.937,1.472,1.472,0,0,0,.192.82,1.146,1.146,0,0,0,.591.431,5.613,5.613,0,0,0,1,.24,6.077,6.077,0,0,1,.878.181.815.815,0,0,1,.415.245.679.679,0,0,1,.112.415.866.866,0,0,1-.149.543.805.805,0,0,1-.437.272,2.762,2.762,0,0,1-.724.08q-.192,0-.511-.027t-.655-.069l-.6-.075-.043.713q.266.043.607.091t.687.08q.346.032.591.032a3.437,3.437,0,0,0,1.113-.16,1.377,1.377,0,0,0,.714-.527,1.725,1.725,0,0,0,.25-.985,1.521,1.521,0,0,0-.181-.809,1.172,1.172,0,0,0-.581-.447" transform="translate(-673.187 -193.946)" fill="#3a5f62"/><path d="M842.447,237.7a3.887,3.887,0,0,1-.618.255,2.683,2.683,0,0,1-.852.128,1.111,1.111,0,0,1-.7-.186.928.928,0,0,1-.3-.6,7.16,7.16,0,0,1-.069-1.118V233.4h-.82v2.779a7.021,7.021,0,0,0,.133,1.512,1.439,1.439,0,0,0,.5.863,1.692,1.692,0,0,0,1.043.277,2.821,2.821,0,0,0,.953-.144,4.9,4.9,0,0,0,.74-.335v.373h.82V233.4h-.82Z" transform="translate(-699.149 -194.478)" fill="#3a5f62"/><path d="M874.7,233.226a5.626,5.626,0,0,0-.511.3v-.713h-.82v5.324h.82v-3.9q.2-.107.516-.245t.687-.261a6.654,6.654,0,0,1,.735-.2V232.7a3.675,3.675,0,0,0-.745.213,6.836,6.836,0,0,0-.682.314" transform="translate(-727.722 -193.892)" fill="#3a5f62"/><path d="M897.6,237.173v-2.694a2.291,2.291,0,0,0-.176-.964,1.151,1.151,0,0,0-.559-.564,2.273,2.273,0,0,0-.991-.186c-.22,0-.462.013-.724.037s-.515.055-.756.09-.447.071-.618.106l.043.628q.276-.032.639-.064t.729-.053q.368-.021.634-.021a1,1,0,0,1,.708.224,1.017,1.017,0,0,1,.24.767v.458l-1.64.16a2.583,2.583,0,0,0-.911.218,1.188,1.188,0,0,0-.548.506,1.759,1.759,0,0,0-.182.852,1.728,1.728,0,0,0,.384,1.214,1.445,1.445,0,0,0,1.118.415,3.719,3.719,0,0,0,.708-.069,6.631,6.631,0,0,0,.671-.165,5.406,5.406,0,0,0,.516-.181,1.555,1.555,0,0,0,.24.181,1.586,1.586,0,0,0,.261.128c.078.021.158.041.239.059a1.944,1.944,0,0,0,.261.037c.092.007.188.011.287.011l.032-.649a1,1,0,0,1-.42-.138.423.423,0,0,1-.186-.341m-.831.117c-.121.043-.273.089-.458.138s-.38.092-.585.128a3.509,3.509,0,0,1-.6.053.715.715,0,0,1-.6-.255,1.1,1.1,0,0,1-.2-.7.98.98,0,0,1,.208-.671,1,1,0,0,1,.687-.277l1.544-.149Z" transform="translate(-744.48 -193.946)" fill="#3a5f62"/><path d="M931.487,233.367a1.139,1.139,0,0,0-.549-.458,2.419,2.419,0,0,0-.9-.144,2.381,2.381,0,0,0-.6.08,5.1,5.1,0,0,0-.58.186,3.215,3.215,0,0,0-.452.213v-.373h-.82V238.2h.82v-4.3a3.347,3.347,0,0,1,.4-.176,3.73,3.73,0,0,1,.527-.149,2.707,2.707,0,0,1,.548-.059,1.182,1.182,0,0,1,.729.186.958.958,0,0,1,.32.6,6.116,6.116,0,0,1,.08,1.108v2.79h.831v-2.822a7.7,7.7,0,0,0-.08-1.2,2.168,2.168,0,0,0-.277-.809" transform="translate(-772.892 -193.947)" fill="#3a5f62"/><path d="M963.829,237.5q-.24.022-.469.037t-.378.016a1.9,1.9,0,0,1-.98-.2,1.034,1.034,0,0,1-.448-.665,5.266,5.266,0,0,1-.117-1.241,3.877,3.877,0,0,1,.133-1.134,1.027,1.027,0,0,1,.469-.612,1.916,1.916,0,0,1,.942-.192q.149,0,.373.016t.458.037q.234.022.415.043l.032-.681q-.2-.032-.479-.069t-.538-.064q-.261-.027-.442-.027a2.67,2.67,0,0,0-1.278.266,1.536,1.536,0,0,0-.708.857,4.6,4.6,0,0,0-.218,1.56,5.707,5.707,0,0,0,.2,1.661,1.536,1.536,0,0,0,.676.91,2.608,2.608,0,0,0,1.32.282q.181,0,.447-.027t.543-.059q.276-.032.49-.064l-.021-.681q-.181.011-.421.032" transform="translate(-800.4 -193.946)" fill="#3a5f62"/><path d="M990.162,232.764a2.366,2.366,0,0,0-1.182.282,1.866,1.866,0,0,0-.778.895,3.989,3.989,0,0,0-.277,1.624,4.84,4.84,0,0,0,.2,1.512,1.7,1.7,0,0,0,.666.916,2.251,2.251,0,0,0,1.262.309q.32,0,.7-.027t.751-.069q.367-.042.623-.085l-.021-.65q-.245.022-.6.043t-.708.037q-.357.016-.655.016a1.224,1.224,0,0,1-1.076-.426,2.24,2.24,0,0,1-.309-1.256h3.5l.043-.628a2.757,2.757,0,0,0-.543-1.9,2.075,2.075,0,0,0-1.608-.591m-1.4,2.449a2.624,2.624,0,0,1,.165-1.022,1.129,1.129,0,0,1,.474-.559,1.509,1.509,0,0,1,.756-.176,1.219,1.219,0,0,1,1.006.389,2.236,2.236,0,0,1,.314,1.368Z" transform="translate(-823.171 -193.946)" fill="#3a5f62"/><path d="M1038.375,225.082a1.948,1.948,0,0,0-.581-.309,1.78,1.78,0,0,0,.5-.362,1.457,1.457,0,0,0,.314-.537,2.459,2.459,0,0,0,.112-.794,2.063,2.063,0,0,0-.25-1.075,1.453,1.453,0,0,0-.735-.607,3.31,3.31,0,0,0-1.209-.192h-2.684v7.358h2.811a3.844,3.844,0,0,0,.942-.106,1.915,1.915,0,0,0,.724-.346,1.507,1.507,0,0,0,.463-.639,2.627,2.627,0,0,0,.16-.974,2.131,2.131,0,0,0-.154-.873,1.412,1.412,0,0,0-.415-.543m-3.679-3.131h1.8a1.55,1.55,0,0,1,1.027.288,1.143,1.143,0,0,1,.336.916,1.724,1.724,0,0,1-.133.724.893.893,0,0,1-.416.431,1.633,1.633,0,0,1-.74.144H1034.7Zm3.206,5.34a.962.962,0,0,1-.506.41,2.268,2.268,0,0,1-.772.117H1034.7V225.2h1.885a2.87,2.87,0,0,1,.469.043,1.546,1.546,0,0,1,.49.17,1.031,1.031,0,0,1,.389.383,1.286,1.286,0,0,1,.155.671,1.574,1.574,0,0,1-.181.825" transform="translate(-861.431 -184.316)" fill="#3a5f62"/><path d="M1073.677,233.226a5.646,5.646,0,0,0-.511.3v-.713h-.82v5.324h.82v-3.9q.2-.107.517-.245t.687-.261a6.647,6.647,0,0,1,.735-.2V232.7a3.682,3.682,0,0,0-.745.213,6.811,6.811,0,0,0-.682.314" transform="translate(-893.512 -193.892)" fill="#3a5f62"/><path d="M1096.092,233.061a2.636,2.636,0,0,0-1.353-.3,2.609,2.609,0,0,0-1.341.3,1.668,1.668,0,0,0-.719.895,4.451,4.451,0,0,0-.219,1.512,5.382,5.382,0,0,0,.2,1.587,1.63,1.63,0,0,0,.692.937,3.307,3.307,0,0,0,2.79,0,1.634,1.634,0,0,0,.692-.937,5.4,5.4,0,0,0,.2-1.587,4.458,4.458,0,0,0-.218-1.512,1.671,1.671,0,0,0-.719-.895m-.016,3.621a1.077,1.077,0,0,1-.41.687,2.072,2.072,0,0,1-1.853,0,1.075,1.075,0,0,1-.41-.687,5.913,5.913,0,0,1-.1-1.214,4.313,4.313,0,0,1,.128-1.171,1.038,1.038,0,0,1,.442-.628,2.071,2.071,0,0,1,1.741,0,1.046,1.046,0,0,1,.437.628,4.3,4.3,0,0,1,.128,1.171,5.96,5.96,0,0,1-.1,1.214" transform="translate(-910.273 -193.945)" fill="#3a5f62"/><path d="M1131.724,221.857h-.948l-1.491,2.151-.82.032v-4.494h-.82v7.635h.82v-2.407l.841-.043,1.555,2.449h.948l-1.8-2.864Z" transform="translate(-939.59 -182.933)" fill="#3a5f62"/><path d="M1158.039,232.764a2.367,2.367,0,0,0-1.182.282,1.866,1.866,0,0,0-.777.895,3.987,3.987,0,0,0-.277,1.624,4.84,4.84,0,0,0,.2,1.512,1.7,1.7,0,0,0,.666.916,2.251,2.251,0,0,0,1.262.309c.214,0,.447-.009.7-.027s.505-.041.75-.069.453-.057.623-.085l-.022-.65q-.245.022-.6.043t-.708.037q-.357.016-.655.016a1.223,1.223,0,0,1-1.075-.426,2.236,2.236,0,0,1-.309-1.256h3.5l.043-.628a2.756,2.756,0,0,0-.543-1.9,2.075,2.075,0,0,0-1.608-.591m-1.395,2.449a2.625,2.625,0,0,1,.165-1.022,1.13,1.13,0,0,1,.474-.559,1.508,1.508,0,0,1,.756-.176,1.219,1.219,0,0,1,1.006.389,2.235,2.235,0,0,1,.314,1.368Z" transform="translate(-963.051 -193.946)" fill="#3a5f62"/><path d="M1190.85,233.226a5.646,5.646,0,0,0-.511.3v-.713h-.82v5.324h.82v-3.9q.2-.107.516-.245t.687-.261a6.645,6.645,0,0,1,.735-.2V232.7a3.675,3.675,0,0,0-.745.213,6.837,6.837,0,0,0-.682.314" transform="translate(-991.145 -193.892)" fill="#3a5f62"/></g></svg>