<svg xmlns="http://www.w3.org/2000/svg" xmlns:xlink="http://www.w3.org/1999/xlink" width="310.252" height="82.638" viewBox="0 0 310.252 82.638"><defs><clipPath id="a"><rect width="310.252" height="82.638" fill="#fff"/></clipPath></defs><g clip-path="url(#a)"><path d="M365.683,134.274c0,10.86-5.741,16.6-16.6,16.6H294.542l4.864-3.01a11.8,11.8,0,0,0,3.11-4.193l.121-.322,46.449.123c6.359,0,9.2-2.837,9.2-9.2s-2.837-9.2-9.2-9.2h-46.7v-7.4h47.2c5.932,0,8.7-2.922,8.7-9.2,0-6.364-2.837-9.2-9.2-9.2h-46.7v-7.4h46.7c10.86,0,16.6,5.741,16.6,16.6,0,5.783-1.605,10.107-4.779,12.9,3.174,2.791,4.779,7.115,4.779,12.9" transform="translate(-218.776 -68.241)" fill="#fff"/><path d="M308.384,299.787c.015-.031.032-.064.046-.094h-.012c-.012.031-.021.064-.034.094" transform="translate(-229.057 -222.602)" fill="#3a5f62"/><path d="M279.466,0a6.875,6.875,0,1,0,6.875,6.875A6.875,6.875,0,0,0,279.466,0" transform="translate(-202.471 0)" fill="#ffb449"/><path d="M285.033,72.906v55.935h.7a7.247,7.247,0,0,0,6.69-4.439c.014-.034.027-.069.043-.117a7.21,7.21,0,0,0,.525-2.7V65.647h-.7a7.267,7.267,0,0,0-7.259,7.259" transform="translate(-211.713 -48.76)" fill="#ffb449"/><path d="M68.8,119.8a7.669,7.669,0,0,0-6.537-3.618H10.993v1.857a7.737,7.737,0,0,0,7.728,7.728H62.657v8.508a9.21,9.21,0,0,1-9.2,9.2H16.6a9.21,9.21,0,0,1-9.2-9.2v-25.8a9.21,9.21,0,0,1,9.2-9.2H53.457c6.017,0,8.845,2.508,9.17,8.132a3.1,3.1,0,0,0,3.09,2.925h1.209a3.105,3.105,0,0,0,3.1-3.251c-.472-9.948-6.2-15.206-16.568-15.206H16.6A16.619,16.619,0,0,0,0,108.476v25.8a16.619,16.619,0,0,0,16.6,16.6H53.457a16.619,16.619,0,0,0,16.6-16.6V123.359A5.685,5.685,0,0,0,68.8,119.8" transform="translate(0 -68.242)" fill="#fff"/><path d="M314.2,301.2h0Z" transform="translate(-233.376 -223.724)" fill="#3a5f62"/><path d="M294.54,321.244l-.008,0,0,0Z" transform="translate(-218.768 -238.609)" fill="#3a5f62"/><path d="M650.328,176.5a.975.975,0,1,0-.967-.984.954.954,0,0,0,.967.984" transform="translate(-482.323 -129.646)" fill="#fff"/><path d="M680.68,202.731a.992.992,0,0,0-1.984-.016.977.977,0,0,0,.984.984,1,1,0,0,0,1-.968" transform="translate(-504.112 -149.851)" fill="#fff"/><path d="M689.755,201.748a.97.97,0,0,0-.967.967.954.954,0,0,0,.967.983.975.975,0,1,0,0-1.951" transform="translate(-511.608 -149.851)" fill="#fff"/><path d="M660.241,172.064v-2.241l.145-1.677a7.571,7.571,0,0,0-2.306-.371,3.7,3.7,0,0,0-3.982,3.95,3.369,3.369,0,0,0,.484,1.725h-2.805c-.79,0-1.177-.42-1.177-1.274v-4.16l-1.918.419.322,2.08v1.661c0,.855-.387,1.274-1.177,1.274h-2.21c-.79,0-1.177-.532-1.177-1.613V168.1l-1.887.452.306,2.128v2.789a4.428,4.428,0,0,1-.951,2.935,2.671,2.671,0,0,1-2.128,1.032c-2.016,0-3.192-1.58-3.192-4.1v-2.886h-1.581v2.935a5.607,5.607,0,0,0,1.064,3.644,4.262,4.262,0,0,0,3.482,1.419c2.644,0,4.4-1.4,4.8-3.66a3.074,3.074,0,0,0,.871.113h3.016a2.771,2.771,0,0,1,3.128,0h5.256c2.4,0,3.612-.951,3.612-2.838m-4.547-.645c0-1.693.677-2.531,2.031-2.531a2.7,2.7,0,0,1,.839.113l.129.935a9.139,9.139,0,0,1,.113,1.354c0,1.435-.581,2.161-1.725,2.161-.919,0-1.387-.678-1.387-2.032" transform="translate(-471.661 -124.617)" fill="#fff"/><path d="M739.952,145.3l-.6.065h-.79q0-1.016.677-1.016c.145-.016.339.1.58.306.081-.21.145-.371.193-.5a1.7,1.7,0,0,0-.967-.323c-.822,0-1.29.645-1.29,1.532h-.581v.6H740.5Z" transform="translate(-547.551 -106.833)" fill="#fff"/><path d="M755.448,157.065a.975.975,0,1,0-.967-.983.954.954,0,0,0,.967.983" transform="translate(-560.402 -115.213)" fill="#fff"/><path d="M765.477,157.065a.975.975,0,1,0-.968-.983.954.954,0,0,0,.968.983" transform="translate(-567.851 -115.213)" fill="#fff"/><path d="M753.7,157.318v5.127c0,.887-.387,1.322-1.177,1.322h-3.015c-.774,0-1.161-.419-1.161-1.274v-4.1l-1.918.436.339,2.1v1.564c0,.855-.4,1.274-1.193,1.274h-1.9c-.774,0-1.161-.435-1.161-1.322v-7.61l-1.887.435.275,2.064v5.482a2.215,2.215,0,0,0,2.386,2.4h2.725a2.528,2.528,0,0,0,1.548-.484,2.463,2.463,0,0,0,1.58.484h3.773a2.22,2.22,0,0,0,2.4-2.4v-8.078l-1.886.451Z" transform="translate(-550.112 -114.934)" fill="#fff"/><path d="M804.929,165.4h1.6v-8.271l.177-2.145-2.016.162.242,2Z" transform="translate(-597.694 -115.12)" fill="#fff"/><path d="M835.007,155.467a.992.992,0,0,0,0-1.983.988.988,0,0,0-.984.984.971.971,0,0,0,.984,1" transform="translate(-619.483 -114.003)" fill="#fff"/><path d="M844.99,155.467a.97.97,0,0,0,.967-.968.981.981,0,0,0-.967-1.016,1,1,0,0,0-1,.984.985.985,0,0,0,1,1" transform="translate(-626.887 -114.003)" fill="#fff"/><path d="M849.642,162.976a2.534,2.534,0,0,0-1.1-2.161,4.557,4.557,0,0,0-2.774-.79,5.031,5.031,0,0,0-3.208,1.37,7.777,7.777,0,0,0-2.08,2.4v-4.676l.178-2.128-2.016.177.242,1.983v6.288h-2.951c-.79,0-1.177-.435-1.177-1.306v-5.4q-.895.169-1.935.435l.1.726h-.516a3.873,3.873,0,0,0-2.741.967,3.226,3.226,0,0,0-1.032,2.516c0,1.935,1.048,3.16,2.773,3.16a4.5,4.5,0,0,0,2.08-.467,2.672,2.672,0,0,0,2.048.822h14.109Zm-16.463,2.031a5.084,5.084,0,0,1-1.4.193c-.984,0-1.484-.709-1.5-2.112a2.066,2.066,0,0,1,2.032-2.112c.274,0,.564-.016.871-.032Zm14.834.435h-7.5a6.7,6.7,0,0,1,1.806-2.4,4.809,4.809,0,0,1,3.1-1.644c1.725,0,2.6.612,2.6,1.838Z" transform="translate(-615.48 -116.61)" fill="#fff"/><path d="M933.292,158.676l-1.9.436.29,2.1v1.58c0,.855-.387,1.274-1.145,1.274a1.907,1.907,0,0,1-1.387-.6v-4.16l-1.58.355v3.128c0,.855-.387,1.274-1.145,1.274a2.036,2.036,0,0,1-1.435-.564v-4.192l-1.58.355-.032,3.112c0,.854-.387,1.274-1.161,1.274h-1.9c-.774,0-1.161-.436-1.161-1.322v-7.611l-1.887.435.274,2.064v5.482a2.215,2.215,0,0,0,2.386,2.4H922.6a2.425,2.425,0,0,0,1.725-.613,2.094,2.094,0,0,0,.306-.354,2.963,2.963,0,0,0,2.193.967,2.23,2.23,0,0,0,1.951-.919,2.924,2.924,0,0,0,2.177.919,2.192,2.192,0,0,0,2.338-2.338Z" transform="translate(-681.313 -115.213)" fill="#fff"/><path d="M999.134,162.816v-8.078l-1.886.451.274,2.128v5.127c0,.887-.387,1.322-1.177,1.322h-4.064V158.2h-2.354a3.631,3.631,0,0,0-2.741,1.1,3.915,3.915,0,0,0-1.032,2.838,3,3,0,0,0,.9,2.29,2.859,2.859,0,0,0,2.112.79H990.7a3.132,3.132,0,0,1-2.193,2.935l.339.629a4.147,4.147,0,0,0,3.4-3.563h4.483a2.22,2.22,0,0,0,2.4-2.4m-8.481.951H989.3c-1,0-1.5-.645-1.5-1.919,0-1.677.758-2.709,2.032-2.709h.822Z" transform="translate(-732.481 -114.934)" fill="#fff"/><path d="M1066.7,192.973a1,1,0,0,0-1,1,.971.971,0,0,0,1,.983.992.992,0,0,0,0-1.983" transform="translate(-791.563 -143.334)" fill="#fff"/><path d="M1098.758,203.7a.975.975,0,1,0,0-1.951.97.97,0,0,0-.967.967.954.954,0,0,0,.967.984" transform="translate(-815.401 -149.851)" fill="#fff"/><path d="M1089.682,202.731a.992.992,0,0,0-1.984-.016.977.977,0,0,0,.984.984,1,1,0,0,0,1-.968" transform="translate(-807.905 -149.851)" fill="#fff"/><path d="M1145.708,157.065a.975.975,0,1,0-.968-.967.96.96,0,0,0,.968.967" transform="translate(-850.273 -115.213)" fill="#fff"/><path d="M1088.372,162.817v-8.078l-1.886.451.274,2.128v5.127c0,.887-.387,1.322-1.177,1.322h-3.4a13.456,13.456,0,0,0-2-3.612c-1.113-1.419-2.225-2.128-3.321-2.128-1.419,0-2.515,1.274-2.693,3.386l1.677-.194a3.569,3.569,0,0,1-.226-1.08c0-.6.242-.9.725-.9.661,0,1.451.6,2.338,1.806a13.51,13.51,0,0,1,1.612,2.725h-7.208c-.774,0-1.161-.435-1.161-1.322v-7.61l-1.919.436.307,2.16v5.014c0,.887-.387,1.322-1.161,1.322h-1.9c-.79,0-1.177-.419-1.177-1.274v-4.16l-1.919.419.322,2.08v1.661c0,.855-.387,1.274-1.177,1.274h-1.92c-.79,0-1.177-.435-1.177-1.306V160.64a2.21,2.21,0,0,0-1-1.854,3.9,3.9,0,0,0-2.37-.725,3.65,3.65,0,0,0-2.354.758,2.651,2.651,0,0,0-1.016,2.193h.887c0-.967,1.016-1.6,2.257-1.6q1.983,0,1.983,1.451v1.354h-5.869v2.5c0,2.338,1.467,3.708,4.418,4.079l.371-.726c-2.015-.209-3.193-1.4-3.193-2.838l-.016-1.644h4.546a2.119,2.119,0,0,0,2.274,1.628h2.6a2.77,2.77,0,0,1,3.128,0h2.725a2.3,2.3,0,0,0,1.532-.5,2.454,2.454,0,0,0,1.6.5h13.27a2.22,2.22,0,0,0,2.4-2.4" transform="translate(-781.926 -114.935)" fill="#fff"/><path d="M1198.513,165.4h1.6v-8.271l.177-2.145-2.016.162.242,2Z" transform="translate(-890.034 -115.12)" fill="#fff"/><path d="M636.994,222.828a2.089,2.089,0,0,1,.969-.863,3.923,3.923,0,0,1,1.593-.279q.542,0,1.191.057t1.273.131q.624.074,1.051.156l.049-1.084q-.427-.1-1.06-.205t-1.33-.172q-.7-.065-1.339-.066a5.133,5.133,0,0,0-2.127.386,3.169,3.169,0,0,0-1.347,1.133,4.894,4.894,0,0,0-.706,1.84,13.75,13.75,0,0,0-.205,2.521,13.308,13.308,0,0,0,.205,2.464,4.972,4.972,0,0,0,.7,1.831,3.1,3.1,0,0,0,1.347,1.134,5.289,5.289,0,0,0,2.168.386q.41,0,.928-.041t1.043-.107c.35-.044.679-.087.985-.131s.553-.082.74-.115V226.22h-3.138v1.166h1.84v3.433q-.263.049-.665.1t-.83.082q-.427.033-.8.033a3.307,3.307,0,0,1-1.979-.5,2.551,2.551,0,0,1-.928-1.536,11.548,11.548,0,0,1-.246-2.611,13.571,13.571,0,0,1,.139-2.095,4.136,4.136,0,0,1,.484-1.462" transform="translate(-471.661 -163.783)" fill="#fff"/><path d="M680.233,240.038a6.008,6.008,0,0,1-.953.394,4.136,4.136,0,0,1-1.314.2,1.715,1.715,0,0,1-1.084-.288,1.432,1.432,0,0,1-.468-.928,10.976,10.976,0,0,1-.107-1.725V233.4h-1.265v4.287a10.817,10.817,0,0,0,.206,2.333,2.221,2.221,0,0,0,.763,1.33,2.611,2.611,0,0,0,1.61.427,4.35,4.35,0,0,0,1.47-.222,7.562,7.562,0,0,0,1.141-.517v.575H681.5V233.4h-1.265Z" transform="translate(-501.398 -173.363)" fill="#fff"/><rect width="1.265" height="11.777" transform="translate(182.563 56.475)" fill="#fff"/><path d="M725.322,218.924q-.345-.017-.542-.016a2.837,2.837,0,0,0-1.3.254,1.476,1.476,0,0,0-.706.912,6.214,6.214,0,0,0-.213,1.84v.723h-1.035v1.1h1.035v7.112h1.281v-7.112h2.365v-1.1h-2.365v-.706a4.79,4.79,0,0,1,.107-1.15.875.875,0,0,1,.37-.567,1.418,1.418,0,0,1,.723-.156q.262,0,.681.008t.715.025l.016-1.068a3.165,3.165,0,0,0-.46-.058q-.329-.025-.673-.041" transform="translate(-535.926 -162.597)" fill="#fff"/><rect width="1.314" height="11.35" transform="translate(195.556 56.902)" fill="#fff"/><path d="M781.314,233.693a1.76,1.76,0,0,0-.846-.706,3.732,3.732,0,0,0-1.4-.221,3.672,3.672,0,0,0-.92.123,7.851,7.851,0,0,0-.9.288,4.984,4.984,0,0,0-.7.328v-.575h-1.264v8.213h1.264v-6.636a5.178,5.178,0,0,1,.625-.271A5.752,5.752,0,0,1,778,234a4.182,4.182,0,0,1,.846-.091,1.823,1.823,0,0,1,1.125.288,1.478,1.478,0,0,1,.493.928,9.407,9.407,0,0,1,.123,1.708v4.3h1.281v-4.353a11.822,11.822,0,0,0-.124-1.848,3.342,3.342,0,0,0-.427-1.248" transform="translate(-575.862 -172.89)" fill="#fff"/><path d="M812.957,236.788a7.93,7.93,0,0,0-1.634-.411,10.067,10.067,0,0,1-1.33-.3,1.227,1.227,0,0,1-.625-.369.955.955,0,0,1-.164-.583,1.084,1.084,0,0,1,.23-.739,1.233,1.233,0,0,1,.624-.369,3.388,3.388,0,0,1,.887-.107q.394,0,.92.041t1.051.1q.525.057.92.123l.033-1.1q-.378-.066-.9-.14t-1.076-.123q-.55-.049-1.01-.049a4.56,4.56,0,0,0-1.421.222,2.315,2.315,0,0,0-1.109.747,2.23,2.23,0,0,0-.427,1.445,2.27,2.27,0,0,0,.3,1.265,1.768,1.768,0,0,0,.912.665,8.659,8.659,0,0,0,1.535.37,9.375,9.375,0,0,1,1.355.279,1.256,1.256,0,0,1,.641.378,1.047,1.047,0,0,1,.173.641,1.336,1.336,0,0,1-.23.838,1.243,1.243,0,0,1-.673.419,4.264,4.264,0,0,1-1.117.123q-.3,0-.788-.041t-1.01-.107q-.517-.066-.928-.115l-.066,1.1q.41.066.936.14t1.06.123q.534.049.912.049a5.3,5.3,0,0,0,1.716-.246,2.124,2.124,0,0,0,1.1-.813,2.66,2.66,0,0,0,.386-1.519,2.346,2.346,0,0,0-.279-1.248,1.808,1.808,0,0,0-.9-.69" transform="translate(-600.097 -172.889)" fill="#fff"/><path d="M844.273,240.038a6.006,6.006,0,0,1-.953.394,4.139,4.139,0,0,1-1.314.2,1.715,1.715,0,0,1-1.084-.288,1.433,1.433,0,0,1-.469-.928,11.06,11.06,0,0,1-.106-1.725V233.4h-1.265v4.287a10.828,10.828,0,0,0,.206,2.333,2.22,2.22,0,0,0,.764,1.33,2.61,2.61,0,0,0,1.609.427,4.351,4.351,0,0,0,1.471-.222,7.561,7.561,0,0,0,1.141-.517v.575h1.265V233.4h-1.265Z" transform="translate(-623.241 -173.363)" fill="#fff"/><path d="M875.426,233.512a8.669,8.669,0,0,0-.789.468v-1.1h-1.265v8.212h1.265v-6.011q.312-.164.8-.378t1.06-.4a10.264,10.264,0,0,1,1.133-.3v-1.3a5.668,5.668,0,0,0-1.15.329,10.534,10.534,0,0,0-1.051.484" transform="translate(-648.711 -172.841)" fill="#fff"/><path d="M899.826,239.564v-4.156a3.533,3.533,0,0,0-.272-1.486,1.775,1.775,0,0,0-.862-.87,3.5,3.5,0,0,0-1.528-.288c-.339,0-.712.019-1.117.058s-.794.085-1.166.139-.69.11-.953.164l.066.969q.426-.049.985-.1t1.125-.082q.567-.032.978-.033a1.547,1.547,0,0,1,1.092.345,1.569,1.569,0,0,1,.37,1.183v.706l-2.529.246a3.983,3.983,0,0,0-1.4.337,1.833,1.833,0,0,0-.845.78,2.712,2.712,0,0,0-.28,1.314,2.666,2.666,0,0,0,.592,1.872,2.229,2.229,0,0,0,1.724.641,5.739,5.739,0,0,0,1.092-.106,10.241,10.241,0,0,0,1.035-.255,8.35,8.35,0,0,0,.8-.279,2.392,2.392,0,0,0,.37.279,2.445,2.445,0,0,0,.4.2c.12.033.243.063.369.09a3,3,0,0,0,.4.057c.142.011.29.016.443.016l.049-1a1.536,1.536,0,0,1-.648-.214.653.653,0,0,1-.287-.526m-1.282.181c-.187.066-.421.137-.707.214s-.585.143-.9.2a5.41,5.41,0,0,1-.92.082,1.1,1.1,0,0,1-.92-.394,1.7,1.7,0,0,1-.312-1.084,1.511,1.511,0,0,1,.32-1.035,1.548,1.548,0,0,1,1.059-.427l2.382-.23Z" transform="translate(-663.65 -172.889)" fill="#fff"/><path d="M933.6,233.693a1.757,1.757,0,0,0-.846-.706,3.733,3.733,0,0,0-1.4-.221,3.674,3.674,0,0,0-.92.123,7.86,7.86,0,0,0-.9.288,4.958,4.958,0,0,0-.7.328v-.575h-1.265v8.213h1.265v-6.636a5.151,5.151,0,0,1,.624-.271,5.755,5.755,0,0,1,.813-.23,4.174,4.174,0,0,1,.846-.091,1.823,1.823,0,0,1,1.125.288,1.478,1.478,0,0,1,.493.928,9.438,9.438,0,0,1,.123,1.708v4.3h1.281v-4.353a11.864,11.864,0,0,0-.123-1.848,3.344,3.344,0,0,0-.427-1.248" transform="translate(-688.977 -172.89)" fill="#fff"/><path d="M965.582,240.073q-.37.033-.723.057t-.583.025a2.932,2.932,0,0,1-1.511-.312,1.6,1.6,0,0,1-.69-1.026,8.132,8.132,0,0,1-.18-1.914,5.983,5.983,0,0,1,.206-1.749,1.585,1.585,0,0,1,.723-.945,2.955,2.955,0,0,1,1.453-.3q.23,0,.575.025t.707.057q.361.034.641.066l.05-1.051q-.313-.049-.739-.107t-.83-.1q-.4-.041-.682-.041a4.118,4.118,0,0,0-1.971.411,2.368,2.368,0,0,0-1.092,1.322,7.09,7.09,0,0,0-.337,2.406,8.805,8.805,0,0,0,.3,2.563,2.369,2.369,0,0,0,1.043,1.4,4.023,4.023,0,0,0,2.037.435q.279,0,.69-.041t.838-.09q.426-.049.755-.1l-.033-1.051q-.28.016-.649.049" transform="translate(-713.498 -172.889)" fill="#fff"/><path d="M991.376,232.764a3.65,3.65,0,0,0-1.823.435,2.877,2.877,0,0,0-1.2,1.38,6.149,6.149,0,0,0-.427,2.5,7.464,7.464,0,0,0,.312,2.333,2.628,2.628,0,0,0,1.026,1.413,3.473,3.473,0,0,0,1.947.476q.493,0,1.084-.041t1.158-.107q.566-.065.961-.131l-.033-1q-.378.034-.92.066t-1.092.058q-.55.025-1.01.024a1.889,1.889,0,0,1-1.659-.657,3.457,3.457,0,0,1-.476-1.938h5.4l.066-.969a4.253,4.253,0,0,0-.838-2.932,3.2,3.2,0,0,0-2.48-.912m-2.152,3.778a4.049,4.049,0,0,1,.255-1.577,1.74,1.74,0,0,1,.731-.863,2.327,2.327,0,0,1,1.166-.271,1.88,1.88,0,0,1,1.552.6,3.448,3.448,0,0,1,.484,2.111Z" transform="translate(-733.797 -172.889)" fill="#fff"/><path d="M1040.833,227.185a3,3,0,0,0-.9-.476,2.74,2.74,0,0,0,.772-.559,2.243,2.243,0,0,0,.485-.829,3.789,3.789,0,0,0,.173-1.224,3.184,3.184,0,0,0-.386-1.659,2.242,2.242,0,0,0-1.133-.936,5.105,5.105,0,0,0-1.865-.3h-4.139v11.35h4.336a5.928,5.928,0,0,0,1.453-.164,2.953,2.953,0,0,0,1.117-.534,2.324,2.324,0,0,0,.714-.986,4.051,4.051,0,0,0,.246-1.5,3.288,3.288,0,0,0-.238-1.347,2.18,2.18,0,0,0-.641-.838m-5.675-4.829h2.776a2.391,2.391,0,0,1,1.585.444,1.763,1.763,0,0,1,.518,1.412,2.658,2.658,0,0,1-.205,1.117,1.376,1.376,0,0,1-.641.665,2.518,2.518,0,0,1-1.141.222h-2.891Zm4.944,8.237a1.484,1.484,0,0,1-.781.632,3.5,3.5,0,0,1-1.191.181h-2.973v-4.041h2.907a4.428,4.428,0,0,1,.723.066,2.385,2.385,0,0,1,.755.263,1.59,1.59,0,0,1,.6.591,1.983,1.983,0,0,1,.238,1.035,2.427,2.427,0,0,1-.279,1.273" transform="translate(-767.904 -164.304)" fill="#fff"/><path d="M1074.4,233.512a8.708,8.708,0,0,0-.788.468v-1.1h-1.265v8.212h1.265v-6.011q.312-.164.8-.378t1.059-.4a10.25,10.25,0,0,1,1.134-.3v-1.3a5.673,5.673,0,0,0-1.15.329,10.5,10.5,0,0,0-1.052.484" transform="translate(-796.502 -172.841)" fill="#fff"/><path d="M1098.062,233.223a4.066,4.066,0,0,0-2.086-.46,4.025,4.025,0,0,0-2.069.46,2.573,2.573,0,0,0-1.109,1.38,6.87,6.87,0,0,0-.337,2.332,8.3,8.3,0,0,0,.3,2.447,2.514,2.514,0,0,0,1.067,1.446,5.1,5.1,0,0,0,4.3,0,2.521,2.521,0,0,0,1.068-1.446,8.332,8.332,0,0,0,.3-2.447,6.876,6.876,0,0,0-.337-2.332,2.577,2.577,0,0,0-1.109-1.38m-.024,5.585a1.662,1.662,0,0,1-.633,1.059,3.2,3.2,0,0,1-2.858,0,1.658,1.658,0,0,1-.632-1.059,9.123,9.123,0,0,1-.156-1.873,6.652,6.652,0,0,1,.2-1.807,1.6,1.6,0,0,1,.682-.969,3.195,3.195,0,0,1,2.685,0,1.613,1.613,0,0,1,.673.969,6.636,6.636,0,0,1,.2,1.807,9.187,9.187,0,0,1-.156,1.873" transform="translate(-811.442 -172.888)" fill="#fff"/><path d="M1133.936,223.111h-1.462l-2.3,3.318-1.265.049v-6.931h-1.264v11.777h1.264v-3.712l1.3-.066,2.4,3.778h1.462l-2.775-4.418Z" transform="translate(-837.576 -163.071)" fill="#fff"/><path d="M1159.252,232.764a3.651,3.651,0,0,0-1.823.435,2.877,2.877,0,0,0-1.2,1.38,6.147,6.147,0,0,0-.427,2.5,7.467,7.467,0,0,0,.312,2.333,2.629,2.629,0,0,0,1.027,1.413,3.472,3.472,0,0,0,1.946.476c.329,0,.69-.014,1.085-.041s.78-.063,1.158-.107.7-.087.961-.131l-.033-1q-.377.034-.92.066t-1.092.058q-.55.025-1.01.024a1.887,1.887,0,0,1-1.659-.657,3.451,3.451,0,0,1-.477-1.938h5.4l.066-.969a4.252,4.252,0,0,0-.838-2.932,3.2,3.2,0,0,0-2.48-.912m-2.152,3.778a4.049,4.049,0,0,1,.254-1.577,1.743,1.743,0,0,1,.731-.863,2.326,2.326,0,0,1,1.166-.271,1.88,1.88,0,0,1,1.552.6,3.447,3.447,0,0,1,.485,2.111Z" transform="translate(-858.49 -172.889)" fill="#fff"/><path d="M1191.572,233.512a8.729,8.729,0,0,0-.788.468v-1.1h-1.265v8.212h1.265v-6.011q.312-.164.8-.378t1.06-.4a10.261,10.261,0,0,1,1.133-.3v-1.3a5.67,5.67,0,0,0-1.15.329,10.549,10.549,0,0,0-1.051.484" transform="translate(-883.534 -172.841)" fill="#fff"/></g></svg>