<svg xmlns="http://www.w3.org/2000/svg" xmlns:xlink="http://www.w3.org/1999/xlink" width="987.109" height="1213.659" viewBox="0 0 987.109 1213.659"><defs><clipPath id="a"><rect width="987.109" height="1213.659" transform="translate(0 0.001)" fill="none"/></clipPath></defs><g transform="translate(0 -0.001)" opacity="0.38" clip-path="url(#a)"><path d="M457.76,703.264a40.339,40.339,0,1,1,4.932,56.834h0a40.386,40.386,0,0,1-4.931-56.834m7.879,6.621a30.047,30.047,0,1,0,42.334-3.673,30.048,30.048,0,0,0-42.334,3.673" fill="none" stroke="#ffa034" stroke-miterlimit="10" stroke-width="1"/><path d="M205.2,1027.2,437.892,750.3l3.94,3.31a47.559,47.559,0,0,1,5.806,66.93l-232.689,276.9-3.94-3.311a47.559,47.559,0,0,1-5.806-66.93m7.879,6.621a37.27,37.27,0,0,0,.837,48.848l225.84-268.747a37.271,37.271,0,0,0-.837-48.848Z" fill="none" stroke="#ffa034" stroke-miterlimit="10" stroke-width="1"/><path d="M477.51,801.228a40.339,40.339,0,1,1,4.932,56.834h0a40.384,40.384,0,0,1-4.931-56.834m7.879,6.621a30.047,30.047,0,1,0,42.334-3.673,30.048,30.048,0,0,0-42.334,3.673" fill="none" stroke="#ffa034" stroke-miterlimit="10" stroke-width="1"/><path d="M224.954,1125.165l232.689-276.9,3.94,3.31a47.559,47.559,0,0,1,5.806,66.93L234.7,1195.406l-3.94-3.311a47.558,47.558,0,0,1-5.806-66.93m7.879,6.621a37.27,37.27,0,0,0,.837,48.848L459.51,911.887a37.27,37.27,0,0,0-.837-48.848Z" fill="none" stroke="#ffa034" stroke-miterlimit="10" stroke-width="1"/><path d="M324.244,739.091a40.339,40.339,0,1,1,4.932,56.834h0a40.384,40.384,0,0,1-4.931-56.834m7.879,6.621a30.047,30.047,0,1,0,42.334-3.673,30.048,30.048,0,0,0-42.334,3.673" fill="none" stroke="#ffa034" stroke-miterlimit="10" stroke-width="1"/><path d="M71.688,1063.028l232.689-276.9,3.94,3.31a47.558,47.558,0,0,1,5.806,66.93l-232.689,276.9-3.94-3.311a47.559,47.559,0,0,1-5.806-66.93m7.879,6.621A37.271,37.271,0,0,0,80.4,1118.5L306.244,849.75a37.271,37.271,0,0,0-.837-48.848Z" fill="none" stroke="#ffa034" stroke-miterlimit="10" stroke-width="1"/><path d="M399.957,378.236a40.339,40.339,0,1,1,4.931,56.834,40.338,40.338,0,0,1-4.931-56.834m7.879,6.621a30.047,30.047,0,1,0,42.334-3.673,30.048,30.048,0,0,0-42.334,3.673" fill="none" stroke="#ffa034" stroke-miterlimit="10" stroke-width="1"/><path d="M147.4,702.173l232.689-276.9,3.94,3.31a47.558,47.558,0,0,1,5.806,66.93l-232.689,276.9-3.94-3.311a47.559,47.559,0,0,1-5.806-66.93m7.879,6.621a37.27,37.27,0,0,0,.837,48.848l225.84-268.747a37.271,37.271,0,0,0-.837-48.848Z" fill="none" stroke="#ffa034" stroke-miterlimit="10" stroke-width="1"/><path d="M419.708,476.2a40.339,40.339,0,1,1,4.932,56.834h0a40.386,40.386,0,0,1-4.931-56.834m7.879,6.621a30.047,30.047,0,1,0,42.334-3.673,30.048,30.048,0,0,0-42.334,3.673" fill="none" stroke="#ffa034" stroke-miterlimit="10" stroke-width="1"/><path d="M167.151,800.137,399.84,523.24l3.94,3.31a47.559,47.559,0,0,1,5.806,66.93L176.9,870.378l-3.94-3.311a47.559,47.559,0,0,1-5.806-66.93m7.879,6.621a37.27,37.27,0,0,0,.837,48.848L401.71,586.859a37.271,37.271,0,0,0-.837-48.848Z" fill="none" stroke="#ffa034" stroke-miterlimit="10" stroke-width="1"/><path d="M266.441,414.063a40.339,40.339,0,1,1,4.932,56.834h0a40.386,40.386,0,0,1-4.931-56.834m7.879,6.621a30.047,30.047,0,1,0,42.334-3.673,30.048,30.048,0,0,0-42.334,3.673" fill="none" stroke="#ffa034" stroke-miterlimit="10" stroke-width="1"/><path d="M13.885,738,246.574,461.1l3.94,3.31a47.559,47.559,0,0,1,5.806,66.93L23.631,808.24l-3.94-3.311A47.558,47.558,0,0,1,13.885,738m7.879,6.621a37.27,37.27,0,0,0,.837,48.848l225.84-268.747a37.271,37.271,0,0,0-.837-48.848Z" fill="none" stroke="#ffa034" stroke-miterlimit="10" stroke-width="1"/><path d="M283.923,258.771a40.339,40.339,0,1,1,4.932,56.834h0a40.386,40.386,0,0,1-4.931-56.834m7.879,6.621a30.047,30.047,0,1,0,42.334-3.673,30.048,30.048,0,0,0-42.334,3.673" fill="none" stroke="#ffa034" stroke-miterlimit="10" stroke-width="1"/><path d="M31.367,582.708l232.689-276.9,3.94,3.31a47.559,47.559,0,0,1,5.806,66.93L41.113,652.949l-3.94-3.311a47.559,47.559,0,0,1-5.806-66.93m7.879,6.621a37.27,37.27,0,0,0,.837,48.848L265.923,369.43a37.271,37.271,0,0,0-.837-48.848Z" fill="none" stroke="#ffa034" stroke-miterlimit="10" stroke-width="1"/><path d="M531.007,630.376,763.7,353.479l3.94,3.31a47.558,47.558,0,0,1,5.806,66.93l-232.689,276.9-3.94-3.311a47.559,47.559,0,0,1-5.806-66.93M538.886,637a37.271,37.271,0,0,0,.837,48.848L765.563,417.1a37.271,37.271,0,0,0-.837-48.848Z" fill="none" stroke="#ffa034" stroke-miterlimit="10" stroke-width="1"/><path d="M550.757,728.34l232.689-276.9,3.94,3.31a47.558,47.558,0,0,1,5.806,66.93L560.5,798.581l-3.94-3.311a47.558,47.558,0,0,1-5.806-66.93m7.879,6.621a37.271,37.271,0,0,0,.837,48.848L785.31,515.062a37.271,37.271,0,0,0-.837-48.848Z" fill="none" stroke="#ffa034" stroke-miterlimit="10" stroke-width="1"/><path d="M650.047,342.266a40.339,40.339,0,1,1,4.932,56.834h0a40.386,40.386,0,0,1-4.931-56.834m7.88,6.621a30.047,30.047,0,1,0,42.334-3.672h0a30.08,30.08,0,0,0-42.333,3.673" fill="none" stroke="#ffa034" stroke-miterlimit="10" stroke-width="1"/><path d="M397.491,666.2,630.18,389.3l3.94,3.31a47.559,47.559,0,0,1,5.806,66.93L407.237,736.44l-3.94-3.311a47.559,47.559,0,0,1-5.806-66.93m7.879,6.621a37.271,37.271,0,0,0,.837,48.848l225.84-268.747a37.271,37.271,0,0,0-.837-48.848Z" fill="none" stroke="#ffa034" stroke-miterlimit="10" stroke-width="1"/><path d="M480.007,312.131,712.7,35.234l3.94,3.31a47.558,47.558,0,0,1,5.806,66.93l-232.689,276.9-3.94-3.311a47.559,47.559,0,0,1-5.806-66.93m7.879,6.621a37.271,37.271,0,0,0,.837,48.848L714.563,98.853a37.271,37.271,0,0,0-.837-48.848Z" fill="none" stroke="#ffa034" stroke-miterlimit="10" stroke-width="1"/><path d="M752.314,86.158a40.339,40.339,0,1,1,4.931,56.835h0a40.384,40.384,0,0,1-4.931-56.834m7.879,6.621a30.047,30.047,0,1,0,42.334-3.673,30.048,30.048,0,0,0-42.334,3.673" fill="none" stroke="#ffa034" stroke-miterlimit="10" stroke-width="1"/><path d="M499.758,410.1,732.447,133.2l3.94,3.31a47.559,47.559,0,0,1,5.806,66.93L509.5,480.336l-3.94-3.311a47.559,47.559,0,0,1-5.806-66.93m7.879,6.621a37.271,37.271,0,0,0,.837,48.848L734.31,196.817a37.271,37.271,0,0,0-.837-48.848Z" fill="none" stroke="#ffa034" stroke-miterlimit="10" stroke-width="1"/><path d="M521.536,1044.75l232.689-276.9,3.94,3.31a47.559,47.559,0,0,1,5.806,66.93l-232.689,276.9-3.94-3.311a47.558,47.558,0,0,1-5.806-66.93m7.879,6.621a37.271,37.271,0,0,0,.837,48.848l225.84-268.747a37.271,37.271,0,0,0-.837-48.848Z" fill="none" stroke="#ffa034" stroke-miterlimit="10" stroke-width="1"/><path d="M541.286,1142.715l232.689-276.9,3.94,3.31a47.559,47.559,0,0,1,5.806,66.93l-232.689,276.9-3.94-3.311a47.559,47.559,0,0,1-5.806-66.93m7.879,6.621a37.271,37.271,0,0,0,.837,48.848l225.84-268.747a37.271,37.271,0,0,0-.837-48.848Z" fill="none" stroke="#ffa034" stroke-miterlimit="10" stroke-width="1"/><path d="M640.576,756.641a40.339,40.339,0,1,1,4.931,56.834,40.338,40.338,0,0,1-4.931-56.834m7.879,6.621a30.047,30.047,0,1,0,42.334-3.673,30.048,30.048,0,0,0-42.334,3.673" fill="none" stroke="#ffa034" stroke-miterlimit="10" stroke-width="1"/><path d="M388.02,1080.577l232.689-276.9,3.94,3.31a47.559,47.559,0,0,1,5.806,66.93l-232.689,276.9-3.94-3.311a47.558,47.558,0,0,1-5.806-66.93m7.879,6.621a37.271,37.271,0,0,0,.837,48.848L622.576,867.3a37.271,37.271,0,0,0-.837-48.848Z" fill="none" stroke="#ffa034" stroke-miterlimit="10" stroke-width="1"/><path d="M712.608,675.862,945.3,398.965l3.94,3.31a47.559,47.559,0,0,1,5.806,66.93L722.354,746.1l-3.94-3.311a47.559,47.559,0,0,1-5.806-66.93m7.879,6.621a37.271,37.271,0,0,0,.837,48.848l225.84-268.747a37.271,37.271,0,0,0-.837-48.848Z" fill="none" stroke="#ffa034" stroke-miterlimit="10" stroke-width="1"/><path d="M704.491,1090.464l232.689-276.9,3.94,3.31a47.559,47.559,0,0,1,5.806,66.93L714.237,1160.7l-3.94-3.311a47.559,47.559,0,0,1-5.806-66.93m7.879,6.621a37.271,37.271,0,0,0,.837,48.848l225.84-268.747a37.271,37.271,0,0,0-.837-48.848Z" fill="none" stroke="#ffa034" stroke-miterlimit="10" stroke-width="1"/><path d="M733.058,277.6,965.747.7l3.94,3.311a47.558,47.558,0,0,1,5.806,66.93L742.8,347.844l-3.94-3.312a47.559,47.559,0,0,1-5.806-66.93m7.879,6.621a37.271,37.271,0,0,0,.837,48.848L967.614,64.324a37.27,37.27,0,0,0-.837-48.848Z" fill="none" stroke="#ffa034" stroke-miterlimit="10" stroke-width="1"/></g></svg>