<svg xmlns="http://www.w3.org/2000/svg" xmlns:xlink="http://www.w3.org/1999/xlink" width="658.719" height="488.575" viewBox="0 0 658.719 488.575"><defs><clipPath id="a"><rect width="658.719" height="488.575" fill="none"/></clipPath></defs><g clip-path="url(#a)"><path d="M250.734,471.616c-.014,1.619-.318,2.62,1.011,3.539a5.428,5.428,0,0,1,2.084,2.258,8.343,8.343,0,0,1,.416,2.319,8.153,8.153,0,0,0,.787,1.491,19.1,19.1,0,0,1,1.522,3.281c.222.782.042,1.549.221,2.306.128.542,1.2,1.33.026,1.491.035.076.06.19.093.274a6.8,6.8,0,0,0,.778-.418c.014-.17.025-.3.047-.44a2.7,2.7,0,0,1,2.054-2.208,6.518,6.518,0,0,0,.728-.316,6.245,6.245,0,0,1,1.378-.542,10.421,10.421,0,0,0,1.325-.338,1.907,1.907,0,0,1,.459-.987c.108-.132.215-.292.322-.454a7.9,7.9,0,0,1,.74-.962,4.6,4.6,0,0,1,.9-.691c.107-.068.214-.134.316-.211a3.5,3.5,0,0,1,1.592-.74l.336-.077a6.748,6.748,0,0,0,.866-.228l-.124-.575a5.812,5.812,0,0,1,0-2.794,7.3,7.3,0,0,1,.393-.973,1.869,1.869,0,0,0,.275-.842,3.216,3.216,0,0,0-.91-1.4,7.992,7.992,0,0,1-1.2-1.659c-.066-.131-.145-.269-.228-.412a4.229,4.229,0,0,1-.762-2.368,2.147,2.147,0,0,1,.451-1.242.8.8,0,0,0,.061-.347,4.029,4.029,0,0,1,.115-.995c.085-.322.138-.644.193-.966.058-.349.118-.7.2-1.05a2.252,2.252,0,0,1,.692-1.52,3.009,3.009,0,0,1,1.01-.6,14.15,14.15,0,0,0,1.693-1.045c.055-.041.119-.085.185-.129-.047-.135-.088-.264-.121-.388a3.77,3.77,0,0,1-.1-1.064l-.058-.418a3.766,3.766,0,0,1-.2-.679,4.463,4.463,0,0,1,.418-2.6l.167-.429a4.629,4.629,0,0,1,2.739-2.882,4.32,4.32,0,0,1,1.4-.113,4.232,4.232,0,0,0,1.04-.1c.277-.06.561-.118.871-.154a10.339,10.339,0,0,1,1.914.034,6.363,6.363,0,0,0,1.576.011l.256-.094c.893-.319,2.128-.754,3.052-.036a1.8,1.8,0,0,1,.665,1.631c.075.357,1.141,1.287,1.491,1.592l.352.311c.5.448.8.72,1.108,1.034a2.686,2.686,0,0,0,.415.332c.138.1.28.2.435.325a12.965,12.965,0,0,1,1.143,1.072c.817.831.836.825,1.276.713.308-.075.594-.171.877-.262a7.94,7.94,0,0,1,2.514-.492h.027a10.237,10.237,0,0,1,2.7.459,11.235,11.235,0,0,0,1.523.336,1.834,1.834,0,0,0,1.716-.693,5.664,5.664,0,0,1,2.912-2.56,6.9,6.9,0,0,1,3.181,0,5.449,5.449,0,0,0,1.315.148c2.387-.016,4.776-.01,7.163-.005l4.493.005a93.1,93.1,0,0,1,11.459.468,18.849,18.849,0,0,0,2.081.1,18.671,18.671,0,0,1,2.728.165,11.344,11.344,0,0,0,1.955.044c.509-.022,1.02-.033,1.532-.017.654.028,1.3.08,1.95.13a28.9,28.9,0,0,0,3.712.107,12.423,12.423,0,0,1,3.06.118,11.808,11.808,0,0,0,2.723.173,10.368,10.368,0,0,1,1.66.2l.449.088c.5.088.987.218,1.474.352.288.08.582.16.888.231l.874.2a27.307,27.307,0,0,1,4.8,1.378c.83.352,1.705.638,2.574.927l1.322.445a20.358,20.358,0,0,0,4.917.814l1.116.1c.754.074,1.414.08,2.288.148l3.382.009c.4.008.789.019,1.18,0a5.646,5.646,0,0,0,1.2-.237,10.717,10.717,0,0,1,1.308-.283,6.78,6.78,0,0,1,1.991.008,3.111,3.111,0,0,1,1.48.825,2.821,2.821,0,0,0,.269.22l1.469.171-.305,1.441c-.135.814,1.352,1.837,2.339,2.516.256.176.5.343.71.5a5.89,5.89,0,0,0,1.235.655.979.979,0,0,0,.371.09,2.182,2.182,0,0,1,1.408.564,3.274,3.274,0,0,1,.467.432c-.061-.066.083-.044.209-.022.157.03.308.06.44.093a5.474,5.474,0,0,0,.844.124,8.124,8.124,0,0,1,1.213.19c.225.057.454.129.682.2a3.914,3.914,0,0,0,.86.217,4.74,4.74,0,0,0,2.242-.434l.574-.214.281.14a9.383,9.383,0,0,0,1.081-1,6.451,6.451,0,0,1,1.765-1.449,6.126,6.126,0,0,0,1.215-.831c.223-.176.443-.352.671-.516a23.62,23.62,0,0,0,2.379-1.939,13.4,13.4,0,0,0,1.894-2.588l.174-.277a1.672,1.672,0,0,0,.132-.418l.068-.281a7.407,7.407,0,0,1,.913-1.933c.556-.935.965-1.647,1.378-2.365.4-.7.8-1.4,1.218-2.1.253-.432.481-.875.71-1.32a12.317,12.317,0,0,1,2.263-3.4,20.588,20.588,0,0,0,3.093-3.622c.429-.668.822-1.372,1.213-2.065.25-.448.5-.894.756-1.325a2.835,2.835,0,0,1,1.139-1.059,1.579,1.579,0,0,0,.475-.495,4.769,4.769,0,0,1,.63-.811,21.388,21.388,0,0,1,2.623-2.123,3.349,3.349,0,0,0,.465-.434,7.261,7.261,0,0,1,.641-.611l.459-.349a3.825,3.825,0,0,0,.616-.523,5.364,5.364,0,0,1,1.919-1.339l.391-.189a7.183,7.183,0,0,0,1.226-.875,8.678,8.678,0,0,1,2.065-1.364,12.434,12.434,0,0,0,1.862-1.08c.533-.35,1.066-.7,1.636-1a17.777,17.777,0,0,1,2.167-.9l.682-.25c.574-.217,1.141-.456,1.705-.7.582-.247,1.165-.495,1.756-.72.267-.1.531-.19.8-.272a6.371,6.371,0,0,0,.919-.344,6.843,6.843,0,0,0,.6-.358,9.107,9.107,0,0,1,.91-.528l.492-.244a14.428,14.428,0,0,1,2.489-1.042,37.338,37.338,0,0,1,3.734-.877l.341-.058c1.43-.248,3.209-.556,4.056-1.408,1.754-1.763,3.635-1.755,5.3-1.73a9.187,9.187,0,0,0,2.855-.283l1.518-.487a34.218,34.218,0,0,1,4.771-1.3,29.873,29.873,0,0,1,5.3-.465,41.542,41.542,0,0,0,8.763-1.3c.878-.2,1.755-.388,2.629-.567,1.631-.33,3.267-.627,4.9-.921,1.5-.27,2.995-.539,4.488-.839.377-.074.753-.17,1.133-.264a14.471,14.471,0,0,1,2.7-.484c.816-.052,1.641-.03,2.461,0,.6.02,1.2.039,1.79.02a7.078,7.078,0,0,0,.984-.124,10.271,10.271,0,0,1,1.243-.154c.583-.036,1.171-.019,1.754,0l.768.014h.033a13.711,13.711,0,0,0,2.2-.245,18.607,18.607,0,0,1,2.332-.275,10.278,10.278,0,0,0,1.191-.129l.673-.088a9.279,9.279,0,0,1,1.323-.033,6.8,6.8,0,0,0,.891-.014l1.127-.123c1.208-.132,2.395-.262,3.611-.487,1.32-.248,2.662-.5,3.976-.646a3.932,3.932,0,0,0,.88-.253c.217-.077.437-.157.665-.226a9.227,9.227,0,0,1,1.653-.3,8.2,8.2,0,0,0,1.006-.154c1.67-.41,3.352-.756,5.038-1.1,1.13-.231,2.261-.462,3.385-.715.913-.2,1.8-.434,2.692-.72l.27-.088a8.492,8.492,0,0,0,3.1-1.452l.415-.407.581,0a4.45,4.45,0,0,0,1.867-.864,13.252,13.252,0,0,1,1.345-.794,31.66,31.66,0,0,1,5.623-1.92c.858-.233,1.713-.464,2.543-.731a16.547,16.547,0,0,1,2.208-.487c.476-.082.949-.162,1.422-.28a13.241,13.241,0,0,0,2.109-.817c.555-.25,1.111-.5,1.675-.7a9.237,9.237,0,0,0,1.52-.787c.372-.223.748-.445,1.139-.641a27.032,27.032,0,0,1,3.069-1.245l.8-.292c2.221-.822,4.528-1.43,6.756-2.015,1.669-.438,3.338-.875,4.977-1.405.94-.3,1.914-.52,2.89-.735.773-.17,1.545-.338,2.3-.561.8-.236,1.619-.407,2.444-.574a21.077,21.077,0,0,0,2.629-.652A41.48,41.48,0,0,1,598.737,389l.871-.176a7.591,7.591,0,0,0,1.609-.432,12.7,12.7,0,0,1,1.815-.635,12.955,12.955,0,0,0,1.259-.415,21.739,21.739,0,0,1,2.681-.858,19.984,19.984,0,0,0,2.222-.7,26.623,26.623,0,0,1,4.73-1.548,21.837,21.837,0,0,0,3.665-1.229,29.373,29.373,0,0,1,3.377-1.194c.38-.1.759-.214,1.138-.327a22.407,22.407,0,0,1,2.582-.655,22.691,22.691,0,0,0,4.067-1.165c1.252-.471,2.533-.834,3.809-1.194,1.356-.385,2.637-.745,3.869-1.232a5.353,5.353,0,0,0,.616-.321c.209-.121.415-.24.63-.344a2.216,2.216,0,0,0,.379-.253,6.073,6.073,0,0,1,.635-.421,4.2,4.2,0,0,1,1.007-.366c.1-.03.25-.068.368-.107a2.416,2.416,0,0,1,.737-1.287,1.259,1.259,0,0,0,.256-.33,34.569,34.569,0,0,0,1.556-3.088l.19-.407a16.679,16.679,0,0,0,.786-2.249c.179-.594.358-1.188.572-1.763.2-.536.421-1.064.641-1.592.245-.594.492-1.19.71-1.793a37.516,37.516,0,0,1,1.674-3.789c.316-.652.633-1.3.927-1.963.5-1.114.888-2.272,1.284-3.432.267-.789.536-1.581.836-2.362a42.317,42.317,0,0,0,1.779-6.924,56.849,56.849,0,0,1,1.375-5.843c.154-.5.267-1,.382-1.5.135-.588.269-1.177.454-1.757a22.112,22.112,0,0,0,.651-2.95,35.588,35.588,0,0,1,1.147-4.815c.525-1.669,1.141-3.314,1.757-4.953a11.554,11.554,0,0,0,.33-1.119,14.064,14.064,0,0,1,.446-1.46,3.962,3.962,0,0,0,.162-1.515v-.291a3.572,3.572,0,0,0-.374-2.09,5.275,5.275,0,0,0-1.694-1.912,6.286,6.286,0,0,1-1.65-2.452,3.462,3.462,0,0,0-.487-.781,7.915,7.915,0,0,1-.552-.792c-.223-.382-.443-.745-.677-1.119-.253-.407-.5-.822-.739-1.235-.311-.528-.622-1.056-.955-1.57-.28-.437-.577-.861-.868-1.282-.336-.481-.666-.954-.968-1.435a11.708,11.708,0,0,0-1.084-1.353l-.7-.8c-.255-.291-.489-.6-.713-.909l-1.215-.463a10.394,10.394,0,0,0-4.051-.063,16.7,16.7,0,0,1-3.748.126,4.638,4.638,0,0,1-1.71-.61l-.258-.138a4.7,4.7,0,0,0-.891-.3c-.286-.077-.578-.156-.875-.261-.533-.19-1.075-.371-1.619-.553-.806-.269-1.62-.539-2.428-.841a24.85,24.85,0,0,0-4.54-1.166,3.053,3.053,0,0,0-.539-.008,5.915,5.915,0,0,1-1.053-.039c-.245-.038-.474-.09-.7-.143a3.633,3.633,0,0,0-.734-.121,23.093,23.093,0,0,1-4.144-.385,38.453,38.453,0,0,0-7.76-.5,20.982,20.982,0,0,1-2.274-.154c-.586-.063-1.174-.129-1.779-.138a8.256,8.256,0,0,1-1.518-.189c-.2-.036-.393-.075-.6-.1a7.658,7.658,0,0,0-1.356-.027l-.759.014a61.117,61.117,0,0,1-9.7-.768,37.8,37.8,0,0,0-6.165-.423c-.569,0-1.144-.014-1.724-.028a22.236,22.236,0,0,0-4.85.228,12.19,12.19,0,0,1-3.1.127c-.366-.014-.729-.03-1.076-.03l-5.5,0c-1.048,0-2.093,0-3.141,0a5.574,5.574,0,0,1-4.116-1.757,7.339,7.339,0,0,1-.943-1.174,4.448,4.448,0,0,0-.655-.82l-.726-.66a20.874,20.874,0,0,0-1.773-1.509A26.973,26.973,0,0,1,553.967,282c-.616-.8-1.232-1.606-1.886-2.376a56.28,56.28,0,0,0-7.133-7.427,13.592,13.592,0,0,1-3.308-3.83l-.327-.589a10.177,10.177,0,0,1-1.144-2.566,4.529,4.529,0,0,1-.069-1.391,3.676,3.676,0,0,0,.017-.454,1.2,1.2,0,0,0-.083-.313c-.058-.168-.113-.341-.162-.545a3.835,3.835,0,0,1-.085-.519,4.339,4.339,0,0,0-.7-.712l-.292-.237a2.451,2.451,0,0,1-1.012-1.188,2.993,2.993,0,0,1-.08-1.331,7.876,7.876,0,0,1,.618-2.474,3.288,3.288,0,0,1-.4-1.589c-.017-.757,0-1.518,0-2.276,0-1.937.377-3.649-2.022-4.068-1-.175-1.624.438-2.528.565-1.2.166-1.31-.593-2.023-1.258-1.342-1.254-2.8-1.308-4.55-1.307-.533,0-2.091.295-2.45-.076-.663-.685.3-2,.755-2.424,1.193-1.121,3.832-2.477,3.667-4.5-1.11-.266-1.538.235-2.452.456-.947.229-2.037-.282-2.973.06l-.087.419c-2.143-.018-4.894-1.322-6.6-.114a3.618,3.618,0,0,1-3.508.391,16.279,16.279,0,0,1-7.1-4.211,13.819,13.819,0,0,1-2.023-2.642,16.212,16.212,0,0,1-1.49-4.03,17.064,17.064,0,0,0-2.148-5.094c-.442-.7-1.089-1.012-1.367-1.787a13.224,13.224,0,0,1-.557-2.489,13.582,13.582,0,0,0-2.615-6.29,18.678,18.678,0,0,0-2.907-2.947c-.951-.715-2.309-1.018-3.256-1.685a8.071,8.071,0,0,1-2.146-2.215c-.886-1.347-.5-2.383-.806-3.909a8.935,8.935,0,0,0-.687-2.168c-.323-.625-.913-1.047-1.118-1.765-.152-.528.041-1.039-.075-1.542-.131-.567-.424-.857-.534-1.479a6.008,6.008,0,0,0-1.769-3.761c-.884-.814-1.894-1.576-1.225-3.038a2.907,2.907,0,0,1,3.227-.777c.922.69-.347,2.5.793,3.34-.158-.955.661-2.428.886-3.349a18.124,18.124,0,0,0,.615-4.309c-.009-1.026.3-2.537-.038-3.5-.446-1.282-1.983-1.565-3.02-2.195a7.24,7.24,0,0,1-2.552-4.687c.149-.824.774-.792,1.211-1.366a5.027,5.027,0,0,0,.38-3.173,4.254,4.254,0,0,0-3.092-3.3,38.213,38.213,0,0,0-5.273-.721c-1.352-.167-2.522-.969-3.895-1.044-.925-.051-3.974.314-3.486-1.518.153-.577.783-.678,1.029-1.217.256-.56.23-1.472.473-2.117a15.066,15.066,0,0,0,1.1-3.482c.179-1.794-1.381-1.474-2.451-.627a11.861,11.861,0,0,0-1.113.983c-.334.373-.553,1.094-.984,1.343-1.146.666-3.531-.115-4.593-.559-2.074-.868-3.763-1.627-5.176-3.411a14.994,14.994,0,0,1-2.5-4.056c-.508-1.4-2.422-1.939-3.679-2.523a14.9,14.9,0,0,1-1.775-.795c-.555-.363-.819-.991-1.512-1.221-1.975.7.442-1.455.515-2.011.274-2.063-1.248-2.634-2.747-3.551a4.487,4.487,0,0,1-2.333-3.286c-.13-1.063.089-.989-.683-1.788a8.772,8.772,0,0,0-1.325-.993c-2.342-1.67-2.888-4.665-3.54-7.332a21.224,21.224,0,0,1-1.011-4.044,6.86,6.86,0,0,0-.393-1.77,8.77,8.77,0,0,1-.127-1.824,5.477,5.477,0,0,0-.747,0,3.093,3.093,0,0,0-.487.1,5.548,5.548,0,0,1-1.045.187c-.624.037-1.256.024-1.892.011l-4.391-.015a5.47,5.47,0,0,1-1.262-.212,2.673,2.673,0,0,0-.349-.092,6.559,6.559,0,0,0-1.29,0c-.308.018-.613.036-.9.036h-1.1a2.132,2.132,0,0,0-.4.09,4.935,4.935,0,0,1-1.658.249c-.33,0-.652-.02-.951-.039-.259-.016-.539-.029-.743-.03a4.41,4.41,0,0,1-1.43-.026,3.692,3.692,0,0,1-.586-.2,12.886,12.886,0,0,0-1.468,0,25.731,25.731,0,0,1-3.693-.041c-1.875-.2-2.686-1.862-3.225-2.963-.11-.227-.215-.446-.325-.633s-.228-.353-.346-.525a7.308,7.308,0,0,1-.77-1.325,4.768,4.768,0,0,1-.173-.531l-.685-1.605a3.151,3.151,0,0,1-.278-1.308c0-.088-.005-.182-.019-.295a2.887,2.887,0,0,0-.094-.372,4.949,4.949,0,0,1-.192-.878,2,2,0,0,0-.083-.288,4.475,4.475,0,0,1-.189-.714,4.738,4.738,0,0,1-.058-.719.749.749,0,0,0-.028-.294,3.069,3.069,0,0,0-.283-.459,5.293,5.293,0,0,1-.561-.988,6.872,6.872,0,0,1-.264-.825,3.152,3.152,0,0,0-.212-.624l-.17-.339a3.64,3.64,0,0,0-.916-1.34c-.517-.442-1.138-.9-1.685-1.3a3.5,3.5,0,0,0-.787-.367,5.756,5.756,0,0,1-1.49-.753,2.369,2.369,0,0,1-.693-.792,15.357,15.357,0,0,0-1.853-.668l-.842-.238a11.3,11.3,0,0,0-2.054-.464,16.024,16.024,0,0,1-3.338-.659c-1.694-.544-3.38-.94-4.8-1.256a16.14,16.14,0,0,0-3.413-.238,8.272,8.272,0,0,0-2.065.165,5.55,5.55,0,0,1-1.787.105,3.521,3.521,0,0,0-.921.018,2.978,2.978,0,0,0-.36.141,4.275,4.275,0,0,1-.853.3l-.456.078a4.344,4.344,0,0,0-.674.142,8.051,8.051,0,0,1-1.455.4,4.51,4.51,0,0,1-.921.02,2.018,2.018,0,0,0-.4,0,19.937,19.937,0,0,1-5.728.309c-1.606-.066-3.058-.076-4.51-.195a22.182,22.182,0,0,0-2.4-.13c-1.088-.005-2.194-.064-3.28-.134-.935-.062-1.867-.123-2.821-.129a19.857,19.857,0,0,1-3.677-.475c-.635-.123-1.27-.247-1.9-.328a7.218,7.218,0,0,0-1.256-.011,13.052,13.052,0,0,1-1.312.009c-1.248-.077-2.563-.282-3.8-.478a26.98,26.98,0,0,0-3.4-.351,13.459,13.459,0,0,1-1.521-.15,10.426,10.426,0,0,0-1.213-.122c-.308-.008-.616,0-.924.01-.409.009-.814.02-1.21.005a11.273,11.273,0,0,1-1.336-.153,3.973,3.973,0,0,0-1.158-.122c-.965.007-1.927.007-2.892,0l-1.439,0-.616.006a11.729,11.729,0,0,1-3.187-.263l-.44-.019a4.718,4.718,0,0,1-.918-.182l-.778-.209c-.239-.067-.481-.137-.721-.18a4.017,4.017,0,0,1-.629.041,14.935,14.935,0,0,1-3.064-.4l-.808-.281-.071-.484L245.839,42.535l-10.2-6.712L223.561,28.85l-6.952-3.472L210.062,23.3l-5.7-2.776-3.239-3.239L189.576,8.9l-5.758-2.093-6.952-2.939-6.871-1.321-8.646.025L145.781,0l-.012.015c-.121.164-.212.318-.3.466a4.628,4.628,0,0,1-1.221,1.439,16.065,16.065,0,0,1-2.041,1.3,2.752,2.752,0,0,1-1.078.339c-.382.205-.541.317-.7.4-.979.53-1.977,1.013-2.97,1.494-.646.314-1.292.627-1.927.952a8.415,8.415,0,0,1-1.656.585,9.064,9.064,0,0,0-.905.279,2.224,2.224,0,0,0-.324.284,2.951,2.951,0,0,1-1.892.989L76.639,20.622l30.682,31.469-.748.968a6.784,6.784,0,0,1-2.389,1.892c-.272.13-.536.283-.806.434a12.274,12.274,0,0,1-1.6.8c-.835.321-1.63.719-2.441,1.122l-.778.372c-.449.209-.9.416-1.29.646a9.349,9.349,0,0,0-1.936,1.537,8.054,8.054,0,0,0-.811.991,4.269,4.269,0,0,1-.811.835,2.42,2.42,0,0,0-.325.3,2.567,2.567,0,0,0-.289,1.539l0,1.547a5.224,5.224,0,0,1-.586,2.216,6.783,6.783,0,0,0-.286.712l-.415,1.335-1.031-.312a2.874,2.874,0,0,1-.831.239,5.763,5.763,0,0,0-.888.169c-.4.1-.817.181-1.235.261-.478.094-.959.185-1.413.317a13.1,13.1,0,0,1-1.76.349c-.322.048-.646.1-.976.163a5.333,5.333,0,0,1-1.007.09,2.632,2.632,0,0,0-.483.032,9.624,9.624,0,0,1-2.269.236,12.732,12.732,0,0,0-3.264.452,8.9,8.9,0,0,1-2.178.108l-1.729-.021c-.641,0-1.285-.008-1.925,0a8.5,8.5,0,0,0-1.92.355l-.789.2A6.448,6.448,0,0,0,66,72.723a3.334,3.334,0,0,1,.088.621,5.529,5.529,0,0,1,0,1.5,4.88,4.88,0,0,1-.7,1.683,4.479,4.479,0,0,0-.286.528l-.157.374a7.922,7.922,0,0,1-1.16,2.132A6.58,6.58,0,0,1,61.5,81.246a9.913,9.913,0,0,0-3.627,2.712l-.19.253a11.208,11.208,0,0,1-2.117,2.327c-.4.3-.814.566-1.235.834a10.112,10.112,0,0,0-1.559,1.136,17.384,17.384,0,0,1-1.65,1.349A10.951,10.951,0,0,0,49.4,91.331a5.359,5.359,0,0,1-1.669,1.187,3.272,3.272,0,0,0-.9.581l-.421.467-1.147-.011a4.7,4.7,0,0,0-.995.034,1.571,1.571,0,0,1-.731.243,5.325,5.325,0,0,1-.792.012,7.141,7.141,0,0,0-.768.015c-.242.015-.5.031-.769.031a4.565,4.565,0,0,1-.8-.063c-.233-.04-.445-.092-.651-.144a2.076,2.076,0,0,0-.7-.117,7.382,7.382,0,0,1-4-1.122,3.773,3.773,0,0,1-.506-.44,3.045,3.045,0,0,0-1.117-.569,6.869,6.869,0,0,0-1.526-.048l-.7.018a11.977,11.977,0,0,1-5.228-1.569l-.388-.2a3.642,3.642,0,0,0-.945-.413,4.657,4.657,0,0,0-1,0,9.03,9.03,0,0,1-1.172.025,8.546,8.546,0,0,1-1.6-.305l-.272-.07a17.1,17.1,0,0,0-2.271-.461,16.612,16.612,0,0,0-2.3-.011c-.457.018-.91.034-1.353.034H11.419c.736.811.58,1.507-.237,2.477-.478.569-1.434,1.268-1.65,1.974a15.193,15.193,0,0,0,.024,3.564c0,2.506.187,5.088.012,7.584-.156,2.234-1.34,4.16-2.095,6.277a7.285,7.285,0,0,0-.445,2.824,9.767,9.767,0,0,1,.026,2.049c-.105.444-.414.522-.546.959a6.725,6.725,0,0,1-.605,2.047c-.308.494-.747.906-1.049,1.4A4.3,4.3,0,0,0,4,122.239a30.905,30.905,0,0,1,.01,3.549c-.12,1.117-.842,1.669-1.417,2.641-.514.87-.772,1.886-1.264,2.795-.346.64-1.442,1.8-1.316,2.558l.445.084c1.314.25,3.3,2.15,4.448,1.021.665-.654.635-1.816,1.2-2.423,1.238-1.324,4.836-.62,6.485-.62a24.385,24.385,0,0,1,3.046-.012,15.406,15.406,0,0,1,3.02,1.025,6.535,6.535,0,0,1,4.44,4.549,6.981,6.981,0,0,0,3.651,4.943,9.654,9.654,0,0,1,2.135,1.493c.989.987,1.791,2.175,2.809,3.2a7.66,7.66,0,0,1,2.021,2.514,16.573,16.573,0,0,0,1.252,2.91c.487.735.852,1.5,1.25,2.247a23.2,23.2,0,0,0,1.443,3.174A28.957,28.957,0,0,1,40.27,161.2a12.854,12.854,0,0,0,1.388,1.977,6.833,6.833,0,0,1,1.382,2.938,22.506,22.506,0,0,0,1.348,2.4,17.165,17.165,0,0,0,1.448,2.275c.691,1.02,1.452.937,2.363,1.541.766.509.833,1.738,1.387,2.367.406.46.985.561,1.345,1.135a9.437,9.437,0,0,1,.538,1.288c.742,2.563,1.244,5.54,3.3,7.326a7.94,7.94,0,0,1,1.711,1.6c.477.938-.258,2.123.392,2.9.411.489,1.367.554,1.693,1.34.463,1.117-.425,1.946.835,2.685a3.661,3.661,0,0,0,2.994.309c.6-.148,2.43-1.079,3.005-.741.878.515.793,2.428.539,3.276a5.142,5.142,0,0,1-1.648,2.395c-.517.519-1.481,1.166-1.676,1.871-.268.968.33,1.312,1.047,1.568a9.435,9.435,0,0,1,1.262.481c.145.072.206.328.352.407.293.157.688-.047.927.075.593.3.733.77,1.187,1.307.881,1.04,2.089.84,3.375,1.23a5.791,5.791,0,0,1,2.906,1.546c.56.631,1.257,1.81,2.124,2.008,1.465.335,2.013,2.715,2.838,3.749.71.89,1.592,1.826,2.355,2.723.46.542,1.2.9,1.4,1.594.146.483-.159,1.073-.05,1.567a6.1,6.1,0,0,0,.6,1.175c.734,1.477,1.552,3.6.984,5.4-.291.916-1.628,1.107-2.209,1.856a5.085,5.085,0,0,0-.947,2.582,4.223,4.223,0,0,0-2.312,1.226c-.884.92-.226,1.915.855,2.538,1.766,1.019,3.968,1.522,5.08,3.4.455.767.742,1.593,1.139,2.4.447.906,1.207,1.728,1.657,2.655s.5,2.212.979,3.051a5.262,5.262,0,0,0,3.053,2.028,9.622,9.622,0,0,0,3.539-.277c1.314-.33,1.971-.441,2.908.62.769.87,1.216,1.547,2.39,1.667,1.51.155,2.664-.071,4.028.5,2.319.963,4.043,2.754,6.083,4.168a17.521,17.521,0,0,1,2.136,1.9,8.146,8.146,0,0,0,3.692,1.517c1.261.333,2.556.716,3.789,1.011a3.856,3.856,0,0,1,2.534,1.3,3.028,3.028,0,0,1,.5,1.73c.069.655.348,1.146.463,1.769.107.573.011,1.1.157,1.658.12.466.647,1.083.782,1.631.3,1.2.1,2.092.677,3.2a33.9,33.9,0,0,1,1.462,3.873c.23.62.493,1.215.752,1.832a6.93,6.93,0,0,0,1.156,1.679c.477.657.671,1.522,1.126,2.189A14.738,14.738,0,0,0,130.9,280.5c1.969,2.062,2.017,5.36,3.272,7.854.482.957.953,1.787,1.393,2.76.358.8.563.581,1.093,1.057a6.365,6.365,0,0,1,1.062,1.732c.315.552.888.912,1.17,1.37s.36,1.148.6,1.663a8.416,8.416,0,0,0,.891,1.4,2.966,2.966,0,0,1,.68,1.583c.135.539.392.625.469,1.3a16.283,16.283,0,0,1-.011,1.781,23.97,23.97,0,0,1-.521,4.185,7.876,7.876,0,0,1-.481,2.145c-.58,1.308-.628.507-1.742,1.045-1.13.544-1.918,2.349-2.2,3.5-.161.657.093,1.432-.09,2.047-.154.514-.555.724-.909,1.113-1.051,1.155-.669,2.386.127,3.683A10.872,10.872,0,0,0,138,323.224c.711.6,1.936,1,2.415,1.865.6,1.074.386,2.678.719,3.83.13.447.729.961.853,1.422a9.429,9.429,0,0,1,.044,2.231c-1.443.7-.739.752-1.11,2.024-.294,1.01-1.359,1.789-.836,2.946,2.514-.052,1.717,3.191,2.454,4.663,1.126,2.249,3.4,3.772,4.434,6.053a14.038,14.038,0,0,0,2.769,4.412,21.426,21.426,0,0,0,2.4,1.618c1.015.792,2.014,1.7,3.02,2.529.857.7,1.333,1.688,2.136,2.414a28.512,28.512,0,0,1,2.3,2.3c1.033,1.163,2.261,2.168,3.3,3.29,1.965,2.125,3.565,7.229,6.942,7.189,2.174-.025,4.4-.127,6.571-.009a7.679,7.679,0,0,1,5.94,3.183c.986,1.21,1.789,2.723,3.149,3.54,1.778,1.068,3.594,1.348,4.463,3.511.291.724.173,1.659.719,2.3.816.961,1.415.287,2.439.6,1.8.543,2.219,3.208,3.01,4.575a7.221,7.221,0,0,1,1.01,2.539,15.385,15.385,0,0,0,.885,2.532c.3.807.382,1.768.73,2.527.251.549.685.926.925,1.491.365.861.3,1.815.594,2.678.489,1.449,1.717,2.693,2.44,3.931.517.887,1.223.851,1.883,1.593a10.916,10.916,0,0,1,2.667,4.944c.151,1.18-.188,2.387.1,3.551.317,1.272.893,2.183.9,3.539a4.776,4.776,0,0,0,.1,1.527c.362,1.156.64.64,1.429.985.751.329,1.558,1.076,2.427,1.116.426,1.956.537,3.579,1.984,5.1a20.526,20.526,0,0,1,3.033,4c.6,1.14,1.017,2.331,1.656,3.451.462.81.61,1.656,1.479,2.161.971.564,2.046.44,3.07,1a6.493,6.493,0,0,1,2.125,1.9c.8.987,1.989,1.588,2.919,2.53a42.241,42.241,0,0,1,3.034,3.144c1.873,2.342,3.613,5.9,6.7,6.864,2.162.677,4.093,1.162,5.189,3.372a15.509,15.509,0,0,1,1.216,4.333c.143.932-.263,2.746,1.055,3.015,0,.747-.974,3.424-.429,3.969.437.437,1.661-.064,2.217.058.748.165.754.47,1.358.917.516.382,1.178.277,1.618.91a3.6,3.6,0,0,1,.292,2.236" fill="#fff"/></g><path d="M440.963,179.417a1.334,1.334,0,0,0,1.532,1.263h1.042v1.279h-1.2a2.879,2.879,0,0,1-1.39-.316,3.861,3.861,0,0,1-1.089,2.495,2.987,2.987,0,0,1-2.179.852,3.931,3.931,0,0,1-1.848-.473v-1.185a3.321,3.321,0,0,0,1.611.443,1.95,1.95,0,0,0,1.579-.679,2.841,2.841,0,0,0,.568-1.879v-5.385l1.358-.726v.016l.016-.016v4.311Zm5.574-.316a1.381,1.381,0,0,0,1.547,1.579h1.042v1.279h-1.2a2.974,2.974,0,0,0-4.137,0h-1.2V180.68h1.042a1.382,1.382,0,0,0,1.548-1.579v-3.269l1.358-.726V179.1Zm-1.548,5.21a.684.684,0,0,1,.774-.773.677.677,0,0,1,.758.773q0,.79-.758.79a.691.691,0,0,1-.774-.79Zm10.832-4.342a4.1,4.1,0,0,0,2.653.711H459.5v1.279h-1.042a5.933,5.933,0,0,1-2.053-.292,3.692,3.692,0,0,1-1.437-1.035,8.164,8.164,0,0,1-4.642,1.327h-2.147V180.68h2.163a6.405,6.405,0,0,0,5.068-2.116q-1.31-2.415-3.189-2.416a3.855,3.855,0,0,0-2.637,1.358v-1.263a3.933,3.933,0,0,1,2.811-1.342,3.812,3.812,0,0,1,2.352.876,7.635,7.635,0,0,1,2.006,2.5v.7a7.28,7.28,0,0,1-.932.994Zm-2.1-7.563q0,.79-.758.79a.782.782,0,0,1,0-1.564.678.678,0,0,1,.758.774Zm4.832,9.553V180.68h.836q1.643,0,1.643-1.721V172.5l1.373-.726v7.2a2.974,2.974,0,0,1-.837,2.226,2.861,2.861,0,0,1-2.068.758Zm6.694,0V172.5l1.358-.726v10.184Z" fill="#3a5f62"/><g clip-path="url(#a)"><path d="M451.928,186.112a7,7,0,0,0-7,7c0,5.25,7,13,7,13s7-7.75,7-13a7,7,0,0,0-7-7m0,9.5a2.5,2.5,0,1,1,2.5-2.5,2.5,2.5,0,0,1-2.5,2.5" fill="#ffb449"/></g><path d="M303.431,229.581q0,1.328,1.026,1.532a9.464,9.464,0,0,1,2.084-3.979,5.025,5.025,0,0,1,3.79-1.753,3.6,3.6,0,0,1,2.874,1.248,3.882,3.882,0,0,1,.9,2.6v.411a2.58,2.58,0,0,1-2.748,2.794H304.82a2.9,2.9,0,0,1-1.421-.331,3.482,3.482,0,0,1-1.4,2.51,4.359,4.359,0,0,1-2.7.821,3.818,3.818,0,0,1-3.189-1.452,4.207,4.207,0,0,1-.869-2.653,3.867,3.867,0,0,1,.663-2.274l1.311-.284a4.431,4.431,0,0,0-.711,2.416,3.015,3.015,0,0,0,.821,2.179,2.647,2.647,0,0,0,1.974.789,2.8,2.8,0,0,0,2.147-.805,2.493,2.493,0,0,0,.632-1.768v-4.216l1.358-.726v2.936Zm7.847,1.579q1.468,0,1.469-1.642v-.284a2.586,2.586,0,0,0-.758-1.958,2.29,2.29,0,0,0-1.642-.631,3.965,3.965,0,0,0-3.032,1.531,8.133,8.133,0,0,0-1.563,2.984Zm-.237-8.273q0,.789-.757.789a.782.782,0,0,1,0-1.563.677.677,0,0,1,.757.774Zm8.337,9.552a2.6,2.6,0,0,1-2.115-.884,2.9,2.9,0,0,1-.632-1.926v-6.648l1.358-.726v7.326a1.382,1.382,0,0,0,1.547,1.579h1.042v1.279Zm.253,0V231.16h1.042a1.381,1.381,0,0,0,1.547-1.579v-3.268l1.358-.726v4.042a2.8,2.8,0,0,1-.8,2.116,2.727,2.727,0,0,1-1.942.694Zm1.6,2.353q0,.789-.758.789a.782.782,0,0,1,0-1.563.677.677,0,0,1,.758.774Zm2,0q0,.789-.758.789a.782.782,0,0,1,0-1.563.677.677,0,0,1,.758.774Zm6.553-4.9a1.334,1.334,0,0,0,1.531,1.263h1.042v1.279h-1.2a2.887,2.887,0,0,1-1.389-.315,3.854,3.854,0,0,1-1.09,2.494,2.982,2.982,0,0,1-2.179.853,3.92,3.92,0,0,1-1.847-.474v-1.184a3.319,3.319,0,0,0,1.611.442,1.947,1.947,0,0,0,1.579-.679,2.847,2.847,0,0,0,.568-1.879v-5.384l1.358-.726v.015l.016-.015v4.31Zm1.626,2.542V231.16h.837q1.643,0,1.642-1.721v-6.458l1.374-.726v7.2a2.974,2.974,0,0,1-.837,2.226,2.861,2.861,0,0,1-2.069.758Zm6.7,0v-9.458l1.358-.726v10.184Z" fill="#3a5f62"/><g clip-path="url(#a)"><path d="M317.507,239.033a7,7,0,0,0-7,7c0,5.25,7,13,7,13s7-7.75,7-13a7,7,0,0,0-7-7m0,9.5a2.5,2.5,0,1,1,2.5-2.5,2.5,2.5,0,0,1-2.5,2.5" fill="#ffb449"/></g><path d="M99.917,190.612a2.765,2.765,0,0,1-2.243-.963,3.225,3.225,0,0,1-.694-2.132,3.931,3.931,0,0,1,.781-2.439A4.518,4.518,0,0,1,100,183.554,4.431,4.431,0,0,1,102.3,185.2a3.953,3.953,0,0,1,.695,2.321,3.112,3.112,0,0,1-.885,2.353,2.852,2.852,0,0,1-2.037.742Zm-.269-9.71q0,.789-.758.789a.782.782,0,0,1,0-1.563.677.677,0,0,1,.758.774Zm.221,8.431h.237a1.409,1.409,0,0,0,1.129-.489,1.948,1.948,0,0,0,.418-1.311A2.811,2.811,0,0,0,100,184.817a2.8,2.8,0,0,0-1.658,2.7,2,2,0,0,0,.41,1.327A1.387,1.387,0,0,0,99.869,189.333Zm1.8-8.431q0,.789-.758.789a.782.782,0,0,1,0-1.563.677.677,0,0,1,.758.774Zm6.142,8.873a4.183,4.183,0,0,1-.931,2.842,2.95,2.95,0,0,1-2.353,1.027,3.917,3.917,0,0,1-1.847-.474v-1.184a3.327,3.327,0,0,0,1.61.442,1.949,1.949,0,0,0,1.579-.679,2.841,2.841,0,0,0,.569-1.879v-5.384l1.373-.727Zm10.216-.442v1.279h-1.958a2.94,2.94,0,0,1-1.168,2.242,3.353,3.353,0,0,1-2.116.727,3.9,3.9,0,0,1-1.847-.458v-1.2a3.532,3.532,0,0,0,1.658.442,2.211,2.211,0,0,0,1.46-.521,1.63,1.63,0,0,0,.64-1.248q-.822-.031-1.216-.063a3.4,3.4,0,0,1-2.574-1.152,3.493,3.493,0,0,1-.726-2.29,3.737,3.737,0,0,1,.916-2.684,2.863,2.863,0,0,1,2.163-.853,2.769,2.769,0,0,1,2.163.837,2.851,2.851,0,0,1,.647,1.942v3Zm-3.331-2.9q0-1.611-1.437-1.611a1.526,1.526,0,0,0-1.279.592,2.636,2.636,0,0,0-.458,1.65,1.938,1.938,0,0,0,2.021,2.195q.379.048,1.153.079Zm6.331,1.326a1.382,1.382,0,0,0,1.547,1.579h1.043v1.279h-1.2a2.65,2.65,0,0,1-2.068-.837,2.65,2.65,0,0,1-2.068.837h-1.2v-1.279h1.042a1.382,1.382,0,0,0,1.547-1.579v-3.268l1.358-.727v3.995Zm-.189-6.695q0,.79-.758.79a.691.691,0,0,1-.774-.79.684.684,0,0,1,.774-.773.677.677,0,0,1,.758.773Zm10.468,6.695a1.375,1.375,0,0,0,1.532,1.579H133.9v1.279h-1.2a2.651,2.651,0,0,1-2.069-.837,2.688,2.688,0,0,1-2.353,1.153,2.659,2.659,0,0,1-2.336-1.137,2.646,2.646,0,0,1-2.069.821h-1.2v-1.279h1.042a1.382,1.382,0,0,0,1.548-1.579v-.521a4.005,4.005,0,0,1,.9-2.81,3,3,0,0,1,4.452.252,4.282,4.282,0,0,1,.7,2.558v.521Zm-4.689-.537q0,2.433,1.657,2.432A1.416,1.416,0,0,0,129.5,189a3.089,3.089,0,0,0,.45-1.785q0-2.4-1.674-2.4-1.658,0-1.657,2.4Zm6.331,3.4v-1.279h.837q1.643,0,1.642-1.721v-6.458l1.374-.726v7.2a2.975,2.975,0,0,1-.837,2.226,2.864,2.864,0,0,1-2.068.758Zm6.7,0v-9.458l1.358-.726v10.184Zm12.663-2.858a1.375,1.375,0,0,0,1.532,1.579h1.042v1.279h-1.2a2.5,2.5,0,0,1-2.337-1.2,2.611,2.611,0,0,1-1.879.726,2.666,2.666,0,0,1-2.21-1.042,3.442,3.442,0,0,1-.679-2.163,3.329,3.329,0,0,1,.931-2.463,2.6,2.6,0,0,1,1.927-.805,2.551,2.551,0,0,1,1.5.442v-.679l1.373-.726v5.052Zm-1.373-2.179a1.864,1.864,0,0,0-1.437-.647,1.384,1.384,0,0,0-1.137.56,2.647,2.647,0,0,0,0,2.929,1.4,1.4,0,0,0,1.153.553,1.766,1.766,0,0,0,1.452-.726,4.269,4.269,0,0,1-.031-.442Zm-1.279-4.673q0,.789-.758.789a.782.782,0,0,1,0-1.563.677.677,0,0,1,.758.774Zm2,0q0,.789-.758.789a.782.782,0,0,1,0-1.563.677.677,0,0,1,.758.774Zm6.221,6.852a1.382,1.382,0,0,0,1.547,1.579h1.042v1.279h-1.2a2.65,2.65,0,0,1-2.068-.837,2.65,2.65,0,0,1-2.068.837h-1.2v-1.279h1.042a1.382,1.382,0,0,0,1.547-1.579v-3.268l1.358-.727v3.995Zm-.19-6.695q0,.79-.757.79a.691.691,0,0,1-.774-.79.684.684,0,0,1,.774-.773.676.676,0,0,1,.757.773Zm1.832,9.553v-1.279h1.042a1.382,1.382,0,0,0,1.548-1.579v-3.268l1.357-.727V187.8a2.793,2.793,0,0,1-.8,2.115,2.724,2.724,0,0,1-1.942.695Zm1.6,2.353q0,.789-.758.789a.782.782,0,0,1,0-1.563.677.677,0,0,1,.758.774Zm2,0q0,.789-.758.789a.782.782,0,0,1,0-1.563.677.677,0,0,1,.758.774Zm1.926-2.353.664-1.279h2.81a1.1,1.1,0,0,0,.892-.316,1.734,1.734,0,0,0,.261-1.089,3.4,3.4,0,0,0-1.942-3.158l.694-1.168a4.719,4.719,0,0,1,2.59,4.01,1.965,1.965,0,0,0,.418,1.319,1.658,1.658,0,0,0,1.24.4h.931v1.279h-1.042a2.6,2.6,0,0,1-2.052-.837,1.9,1.9,0,0,1-1.753.837Zm16.248-2.858a1.375,1.375,0,0,0,1.531,1.579h1.058v1.279h-1.2a2.649,2.649,0,0,1-2.068-.837,2.974,2.974,0,0,1-4.69.016,2.642,2.642,0,0,1-2.068.821h-1.2v-1.279H173.7a1.381,1.381,0,0,0,1.547-1.579v-.521a4.005,4.005,0,0,1,.9-2.81,3,3,0,0,1,4.453.252,4.282,4.282,0,0,1,.7,2.558v.521Zm-4.69-.537q0,2.433,1.658,2.432a1.416,1.416,0,0,0,1.224-.647,3.089,3.089,0,0,0,.45-1.785q0-2.4-1.674-2.4-1.658,0-1.658,2.4Zm6.332,3.4v-1.279h.837q1.641,0,1.642-1.721v-6.458l1.374-.726v7.2a2.975,2.975,0,0,1-.837,2.226,2.865,2.865,0,0,1-2.069.758Zm6.695,0v-9.458l1.358-.726v10.184Z" fill="#3a5f62"/><g clip-path="url(#a)"><path d="M144.119,192.938a7,7,0,0,0-7,7c0,5.25,7,13,7,13s7-7.75,7-13a7,7,0,0,0-7-7m0,9.5a2.5,2.5,0,1,1,2.5-2.5,2.5,2.5,0,0,1-2.5,2.5" fill="#ffb449"/></g><path d="M158.675,261.7a2.763,2.763,0,0,1-2.242-.963,3.225,3.225,0,0,1-.694-2.132,3.931,3.931,0,0,1,.781-2.439,4.513,4.513,0,0,1,2.234-1.524,4.424,4.424,0,0,1,2.306,1.642,3.952,3.952,0,0,1,.694,2.321,3.115,3.115,0,0,1-.884,2.353,2.852,2.852,0,0,1-2.037.742Zm-.268-9.711q0,.79-.758.79a.691.691,0,0,1-.774-.79.684.684,0,0,1,.774-.773.677.677,0,0,1,.758.773Zm.221,8.432h.237a1.409,1.409,0,0,0,1.129-.489,1.95,1.95,0,0,0,.418-1.311,2.81,2.81,0,0,0-1.658-2.716,2.8,2.8,0,0,0-1.658,2.7,2,2,0,0,0,.411,1.327A1.386,1.386,0,0,0,158.628,260.422Zm1.8-8.432q0,.79-.758.79a.691.691,0,0,1-.774-.79.684.684,0,0,1,.774-.773.677.677,0,0,1,.758.773Zm2.542,9.711.663-1.279h2.811a1.1,1.1,0,0,0,.892-.316,1.735,1.735,0,0,0,.26-1.089,3.4,3.4,0,0,0-1.942-3.158l.695-1.169a4.723,4.723,0,0,1,2.59,4.011,1.955,1.955,0,0,0,.418,1.318,1.653,1.653,0,0,0,1.239.4h.932V261.7h-1.042a2.6,2.6,0,0,1-2.053-.837,1.9,1.9,0,0,1-1.752.837Zm7.611,0v-1.279h2.163a6.405,6.405,0,0,0,5.068-2.116q-1.311-2.415-3.189-2.416a3.855,3.855,0,0,0-2.637,1.358v-1.263a3.937,3.937,0,0,1,2.81-1.342,3.813,3.813,0,0,1,2.353.876,7.644,7.644,0,0,1,2.005,2.5v.7a7.687,7.687,0,0,1-6.426,2.984Zm5.384,2.353q0,.789-.758.789a.782.782,0,0,1,0-1.563.677.677,0,0,1,.758.774Z" fill="#3a5f62"/><g clip-path="url(#a)"><path d="M167.265,270.444a7,7,0,0,0-7,7c0,5.25,7,13,7,13s7-7.75,7-13a7,7,0,0,0-7-7m0,9.5a2.5,2.5,0,1,1,2.5-2.5,2.5,2.5,0,0,1-2.5,2.5" fill="#ffb449"/></g></svg>